<?xml version="1.0" encoding="UTF-8" standalone="no"?>
<!-- Created with Inkscape (http://www.inkscape.org/) -->

<svg
   xmlns:dc="http://purl.org/dc/elements/1.1/"
   xmlns:cc="http://creativecommons.org/ns#"
   xmlns:rdf="http://www.w3.org/1999/02/22-rdf-syntax-ns#"
   xmlns:svg="http://www.w3.org/2000/svg"
   xmlns="http://www.w3.org/2000/svg"
   xmlns:sodipodi="http://sodipodi.sourceforge.net/DTD/sodipodi-0.dtd"
   xmlns:inkscape="http://www.inkscape.org/namespaces/inkscape"
   width="377.28159"
   height="339.29218"
   id="svg77683"
   version="1.1"
   inkscape:version="0.48.4 r9939"
   sodipodi:docname="Nytt dokument 24">
  <defs
     id="defs77685" />
  <sodipodi:namedview
     id="base"
     pagecolor="#ffffff"
     bordercolor="#666666"
     borderopacity="1.0"
     inkscape:pageopacity="0.0"
     inkscape:pageshadow="2"
     inkscape:zoom="0.35"
     inkscape:cx="188.64079"
     inkscape:cy="169.64609"
     inkscape:document-units="px"
     inkscape:current-layer="layer1"
     showgrid="false"
     fit-margin-top="0"
     fit-margin-left="0"
     fit-margin-right="0"
     fit-margin-bottom="0"
     inkscape:window-width="463"
     inkscape:window-height="423"
     inkscape:window-x="130"
     inkscape:window-y="130"
     inkscape:window-maximized="0" />
  <metadata
     id="metadata77688">
    <rdf:RDF>
      <cc:Work
         rdf:about="">
        <dc:format>image/svg+xml</dc:format>
        <dc:type
           rdf:resource="http://purl.org/dc/dcmitype/StillImage" />
        <dc:title></dc:title>
      </cc:Work>
    </rdf:RDF>
  </metadata>
  <g
     inkscape:label="Layer 1"
     inkscape:groupmode="layer"
     id="layer1"
     transform="translate(-186.35921,-362.7161)">
    <g
       id="g29662"
       transform="matrix(1.25,0,0,-1.25,686.83869,425.82289)"
       style="fill:#000000">
      <path
         id="path29664"
         style="fill:#000000;fill-opacity:1;fill-rule:nonzero;stroke:none"
         d="m -384.9955,-116.18207 c -0.518,0.617 0.388,0.608 0.517,0.459 0.115,-0.135 0.257,-0.878 0.044,-0.797 -0.319,0.121 -0.454,0.21 -0.561,0.338 m 187.0244,-0.61131 c -0.134,0.35 0.072,0.891 0.466,0.46 0.187,-0.205 0.274,-0.982 -0.203,-0.805 -0.093,0.034 -0.229,0.257 -0.263,0.345 m 17.99899,-95.44529 c 0.205,0.454 1.059,0.14 0.684,-0.436 -0.302,-0.464 -0.785,0.215 -0.684,0.436 m -161.79099,117.3115 c -0.305,0.482 0.164,0.703 0.449,0.506 0.287,-0.198 0.606,-0.452 0.73,-0.737 -0.372,0.038 -0.886,-0.235 -1.179,0.231 m 60.5449,-79.9551 c -0.458,0.947 0.676,0.591 0.98,0.539 l 0,-0.958 c -0.373,-0.122 -0.793,0.031 -0.98,0.419 m 3.0489,85.8233 c -0.102,0.884 0.638,-0.387 0.621,-0.81 -0.015,-0.387 0.72,-1.249 -0.176,-1.283 -0.044,0.762 -0.367,1.413 -0.445,2.093 m -5.5821,-96.52541 c 0.469,0.328 1.143,-0.396 0.847,-0.941 -0.132,-0.246 -0.293,-0.744 -0.675,-0.478 -0.287,0.199 -0.753,0.536 -0.505,1.077 0.018,0.038 0.248,0.282 0.333,0.342 m -105.0839,76.15131 c 0.279,0.186 0.779,0.042 1.132,0.051 0.158,-0.475 0.077,-1.418 -0.569,-1.262 -0.32,0.077 -1.135,0.186 -0.887,0.773 0.051,0.12 0.19,0.349 0.324,0.438 m 84.1445,32.8067 c 0.495,0.122 1.195,-0.568 1.039,-1.196 -0.123,-0.494 -0.691,-0.552 -1.037,-0.381 -0.316,0.154 -0.777,0.514 -0.519,1.039 0.04,0.081 0.359,0.499 0.517,0.538 m 23.6494,-133.6865 c 0.336,0.148 0.902,0.082 0.983,-0.421 0.066,-0.403 0.236,-1.13 -0.418,-1.335 -0.522,-0.163 -1.165,-0.056 -1.335,0.592 -0.104,0.396 0.313,0.963 0.77,1.164 m -58.8057,31.86709 c -0.079,0.217 0,0.96 0,1.172 0.549,-0.025 1.253,0.228 1.605,-0.214 0.265,-0.331 0.214,-0.865 0.067,-1.162 -0.162,-0.328 -0.624,-0.577 -0.96,-0.45 -0.291,0.109 -0.604,0.357 -0.712,0.654 m -10.1855,2.24221 c 0.52,0.23 1.025,-0.067 1.198,-0.604 0.229,-0.711 -0.554,-1.822 -1.403,-1.518 -0.603,0.216 -0.436,0.95 -0.342,1.485 0.019,0.107 0.435,0.587 0.547,0.637 m 35.5117,74.2266 c 0.563,0.518 1.309,0.063 1.636,-0.371 0.272,-0.361 0.607,-0.863 0.414,-1.368 -0.257,-0.67 -0.958,-0.963 -1.621,-0.672 -0.191,0.084 -0.479,0.364 -0.52,0.621 -0.103,0.646 -0.271,1.457 0.091,1.79 m -22.9043,-76.9189 c 0.613,0.108 1.571,0.016 1.827,-0.616 0.228,-0.562 0.47,-1.205 0.294,-1.624 -0.225,-0.536 -0.739,-0.996 -1.172,-1.167 -0.369,-0.147 -0.948,-0.333 -1.256,0.138 -0.381,0.585 -0.865,1.298 -0.766,1.98 0.043,0.299 0.818,1.244 1.073,1.289 m -46.3613,27.82029 c 0.818,0.324 1.386,-0.5 1.61,-1.229 0.23,-0.745 -0.811,-1.826 -1.786,-1.978 -0.692,-0.107 -1.65,-0.213 -1.782,0.692 -0.17,1.165 0.97,2.124 1.958,2.515 m 30.0605,-28.43069 c 0.684,0.451 1.714,0.165 2.018,-0.674 0.403,-1.112 -0.531,-1.978 -0.622,-2.645 -0.648,0.266 -1.357,0.116 -1.912,0.473 -0.463,0.3 -1.169,0.913 -0.664,1.629 0.329,0.466 0.736,0.923 1.18,1.217 m 30.3389,-13.3437 c 0.744,0.371 1.345,-0.197 1.732,-0.793 0.329,-0.504 0.706,-1.39 0.054,-1.956 -0.188,-0.164 -0.254,-0.604 -0.501,-0.649 -0.764,-0.145 -1.557,-0.198 -2.335,0.551 -0.24,0.232 -0.101,1.03 0.031,1.64 0.059,0.27 0.804,1.101 1.019,1.207 m -23.9756,0.5771 c 0.834,0.155 1.789,-0.391 1.962,-1.42 0.184,-1.102 -1.207,-2.462 -2.409,-2.08 -0.701,0.224 -1.203,0.94 -1.253,1.625 0.422,0.263 0.461,0.735 0.385,1.162 0.296,0.161 1.089,0.671 1.315,0.713 m 68.1377,-24.9355 c 0.729,0.21 1.975,-0.133 1.98,-1.299 0.006,-1.009 -0.66,-1.967 -1.494,-2.377 -0.444,-0.219 -1.137,0.187 -1.681,0.285 -0.065,0.989 -0.646,2.066 0.178,2.829 0.186,0.171 0.802,0.5 1.017,0.562 m -44.5391,95.8369 c 0.861,0.097 0.417,-1.59 1.627,-1.823 l -0.996,-2.297 c -0.63,0.163 -1.172,-0.092 -1.54,-0.406 -0.616,1.007 -1.788,0.66 -1.93,1.703 -0.158,1.173 0.968,2.19 2.097,2.431 0.106,0.023 0.39,0.353 0.742,0.392 m 23.9288,-79.0918 c 0.798,0.45 1.999,0.598 2.692,-0.153 0.758,-0.821 0.666,-2.449 -0.224,-3.172 -0.839,-0.682 -2.147,-0.679 -2.976,-0.012 -0.732,0.589 -0.846,2.22 0.078,2.892 0.139,0.1 0.248,0.343 0.43,0.445 m 26.7773,-3.1533 c 1.158,0.68 2.445,-0.173 2.677,-1.054 0.551,-2.1 -0.799,-3.541 -2.108,-4.05 -0.567,-0.219 -1.047,0.785 -1.735,0.252 -0.159,0.373 -0.618,0.628 -0.668,0.878 -0.117,0.6 0.045,2.431 0.327,2.83 0.355,0.501 1.032,0.867 1.507,1.144 m -22.8437,32.55659 c 2.025,0.678 3.493,-0.159 3.693,-1.561 0.205,-1.438 -0.671,-3.084 -1.88,-3.364 -0.625,-0.144 -1.207,0.304 -1.87,0.416 -0.14,-0.242 -0.733,-0.939 -0.481,-0.063 0.099,0.343 0.223,0.792 -0.322,1.013 -0.203,0.082 -0.439,0.485 -0.306,0.877 0.29,0.854 0.039,1.88 0.557,2.536 0.553,-0.257 0.814,0.214 0.609,0.146 m -68.7657,3.46091 c 1.421,1.076 2.893,-0.187 3.648,-1.229 0.484,-0.667 -0.231,-2.14 -1.184,-2.624 -1.293,-0.656 -3.266,-0.682 -4.383,0.236 l 0.608,3.274 c 0.466,-0.375 0.93,-0.403 1.102,-0.035 0.052,0.111 0.253,0.411 0.209,0.378 m -33.7402,35.81449 c 1.981,0.815 3.574,-0.172 3.823,-1.849 0.139,-0.936 -0.591,-1.577 -0.719,-2.519 -0.698,-0.08 -1.681,-0.077 -2.266,-0.844 -0.36,0.367 -1.004,1.02 -1.229,0.602 -0.257,0.872 -1.863,1.737 -1.543,3.44 0.836,-0.141 1.589,1.029 1.934,1.17 m 12.5586,-25.79399 c 1.832,0.353 3.78,-0.589 3.709,-2.633 -0.045,-1.303 -1.153,-2.537 -2.479,-2.547 -0.711,-0.007 -1.403,-0.372 -1.907,-0.266 -0.734,0.154 -0.799,0.884 -0.635,1.516 0.146,0.561 -0.973,0.607 -0.793,0.877 0.814,1.227 0.848,2.811 2.105,3.053 m 2.834,30.65919 c 0.765,0.031 1.569,0.513 1.905,0.334 1.334,-0.71 2.648,-2.259 1.814,-3.94 -0.225,-0.454 1.465,-0.169 1.213,-1.254 -0.164,-0.707 -1.078,-0.629 -1.449,-0.076 -0.104,0.158 0.051,0.996 -0.626,0.652 -0.305,-0.155 -0.399,-0.617 -0.633,-0.719 -0.542,-0.236 -1.275,0.133 -1.824,-0.351 -0.324,0.589 -0.946,0.606 -1.633,0.481 0.294,0.745 0.097,2.065 -0.827,1.724 -0.232,0.485 0.196,0.549 0.427,0.58 0.407,0.052 0.654,0.472 0.445,1.037 -0.005,0.012 -0.651,0.338 -0.243,0.657 0.432,0.338 0.869,0.852 1.431,0.875 m 28.2881,35.947306 c 1.742,0.699 3.669,-0.277 3.773,-1.562 0.056,-0.667 0.394,-1.464 0.237,-1.991 -0.402,-1.34 -1.71,-2.252 -3.212,-2.458 -0.351,-0.048 -1.053,0.568 -1.764,0.387 l 0,1.16 c -0.305,-0.025 -0.79,-0.105 -0.75,0.188 0.155,1.143 -0.943,1.557 -0.493,2.594 0.219,0.504 1.038,0.819 0.725,1.596 0.511,0.037 1.135,-0.055 1.484,0.086 m 110.6152,21.913104 c -0.055,-0.013 1.249,-0.175 1.68,-0.233 0.159,-1.272 1.659,-1.038 1.665,-1.728 0.007,-0.722 0.263,-1.334 0.301,-1.814 -0.877,-0.659 -0.545,-1.718 -1.508,-2.068 0.398,-1.174 -0.883,-0.565 -1.269,-0.547 -0.801,0.04 -1.756,0.13 -2.209,0.515 -0.941,0.799 -1.858,2.314 -0.743,4.171 0.247,0.412 0.648,1.399 2.083,1.704 m -87.2246,-7.688504 c 1.433,0.782 3.468,-0.115 3.764,-1.925 0.263,-1.609 -0.354,-3.25 -1.743,-3.632 -0.958,-1.034 -3.108,-0.745 -3.723,0.712 -1.03,1.247 -0.93,3.577 0.427,4.158 0.311,0.134 0.749,0.4 1.275,0.687 m 40.9931,-56.966796 c 0.274,0.213 0.694,0.264 1.029,0.129 1.194,-0.482 2.377,-1.5 2.541,-2.995 0.096,-0.867 0.065,-2.141 -0.504,-2.662 -1.208,-1.11 -3.414,-1.57 -4.613,-0.223 -0.215,0.241 -0.971,0.868 -0.731,1.461 0.382,0.951 -0.935,1.359 -1.057,2.264 0.522,-0.075 1.18,-0.211 1.326,0.418 0.209,0.899 1.32,1.074 2.009,1.608 m 72.127,66.600596 c 0.11,0.034 0.954,0.059 1.146,-0.059 0.99,-0.603 1.816,-1.701 1.89,-2.615 0.162,-1.984 -0.439,-3.247 -1.499,-4.001 -1.588,-1.13 -3.244,0.161 -4.498,1.831 -0.202,0.271 -0.199,1.773 0.08,2.168 0.767,1.088 1.463,2.244 2.881,2.676 M -321.556,-145.83047 c 0.515,0.613 1.206,0.433 1.824,0.454 1.19,0.042 2.252,-0.791 2.773,-1.829 0.177,-0.352 0.007,-1.929 -0.042,-2.41 -0.143,-1.396 -1.218,-2.084 -2.19,-2.317 -2.207,-0.527 -3.614,0.888 -4.213,2.907 -0.13,0.437 0.435,1.217 0.274,2.131 0.639,0.013 1.146,0.553 1.574,1.064 m 33.6074,45.3916 c 1.002,-0.367 2.186,-0.953 2.745,-1.5 1.239,-2.292 0.476,-5.427 -0.99,-5.819 -0.962,-0.258 -1.562,0.419 -2.443,0.056 -0.637,0.617 -1.546,1.073 -1.875,1.836 -0.408,0.947 -0.051,2.193 -0.15,3.309 -0.055,0.625 0.392,1.073 0.921,1.367 0.452,0.251 1.281,0.034 1.792,0.751 m 14.0957,26.276396 c 0.273,0.068 0.94,-0.48 1.557,-0.327 0.011,-1.373 1.564,-1.667 1.568,-2.91 0.007,-2.182 -1.051,-3.712 -2.892,-3.975 -0.333,-0.048 -0.541,-0.561 -0.878,-0.323 -1.674,1.185 -3.395,2.611 -2.539,5.83 0.547,0.739 1.685,1.333 3.184,1.705 m -24.6582,-20.265696 c 0.307,0.037 1.021,0.064 1.494,-0.211 0.68,-0.397 1.246,-1.15 1.394,-1.514 0.896,-2.201 0.478,-4.502 -1.118,-5.078 -0.059,-0.756 -0.852,-0.67 -1.433,-0.643 -2.199,0.096 -3.361,1.988 -3.424,3.954 -0.055,1.72 1.267,3.275 3.087,3.492 m 31.3408,-87.5605 c 2.027,0.396 3.316,-0.812 3.921,-2.041 0.109,-1.392 0.717,-3.187 -0.578,-3.846 -0.428,-0.217 -1.426,-0.449 -1.168,-1.208 -0.855,-0.309 -2.186,-1.044 -3.595,0.073 -0.106,0.084 -0.896,0.297 -1.365,1.035 -0.924,1.454 -0.274,3.215 0.286,4.648 0.478,0.039 0.973,0.596 0.687,1.211 0.645,0.05 1.378,0.044 1.812,0.128 m 104.90819,100.088796 c 1.427,0.434 2.903,0.506 3.86,-0.057 0.448,-0.262 0.327,-0.876 0.4,-1.284 0.412,0.161 0.816,-0.049 0.866,-0.93 0.02,-0.369 -0.136,-1.261 0.375,-1.943 -0.995,-0.859 -1.147,-2.212 -2.031,-2.9 -0.541,-0.421 -1.387,-0.963 -1.742,-0.892 -1.435,0.289 -2.689,0.496 -3.304,1.506 -0.443,0.726 -0.202,1.845 -0.862,2.647 0.711,1.482 1.223,2.922 2.438,3.853 m -28.32709,41.129 c 0.768,-0.449 2.017,-0.926 3.34,-0.941 0.701,-0.008 0.159,-1.175 0.244,-1.362 0.214,-0.465 1.172,-1.363 1.108,-1.78 -0.162,-1.052 -0.622,-2.12 -0.427,-3.646 -1.542,-0.359 -2.683,-1.109 -4.059,-1.256 -0.641,-0.07 -1.955,0.278 -2.246,1.516 -0.273,0.055 -1.271,-0.553 -1.12,0.508 0.211,1.488 0.001,3.163 -0.102,3.488 -0.389,1.241 1.041,2.039 1.756,2.41 0.533,0.278 1.013,0.621 1.506,1.063 m -121.086,-97.102596 c 0.834,-0.449 1.961,0.643 2.654,-0.078 0.693,-0.721 1.188,-1.713 0.831,-2.619 -0.141,-0.364 -0.504,-0.781 -0.87,-0.964 -0.389,-0.196 -1.695,-0.329 -2.146,-0.416 0.26,-0.672 1.046,-0.751 1.203,-1.382 1.399,0.397 0.96,-1.621 1.025,-2.361 0.205,-2.34 -1.536,-3.628 -3.262,-4.183 -0.296,-0.095 -0.626,0.099 -0.998,0.429 -0.502,0.445 -1.381,0.35 -1.698,0.799 -0.856,1.212 -0.914,3.097 -0.694,4.958 0.637,0.953 1.928,1.337 3.625,1.63 -0.066,1.36 0.144,2.944 0.33,4.187 m 67.833,49.241196 c 0.18,0.303 0.427,0.621 0.863,0.459 0.467,-0.174 1.09,-0.05 1.547,-0.51 0.629,-0.632 2.06,-0.839 2.221,-1.818 0.24,-1.463 0.169,-3.05 1.043,-4.204 -0.448,0.139 -0.913,0.021 -1.047,-0.408 -0.086,-0.276 -0.227,-1.152 -0.267,-1.38 -0.824,0.274 -1.287,-1.124 -1.694,-1.02 -0.829,0.214 -1.79,0.146 -2.242,0.226 -1.382,0.248 -2.399,0.932 -2.526,2.239 -0.078,0.804 -1.335,1.441 -0.971,2.277 0.541,1.248 1.103,2.387 1.712,3.263 0.378,0.544 1.119,0.469 1.361,0.876 m 2.8047,36.0674 c 1.099,-0.069 2.663,0.312 3.108,-0.217 1.045,-1.238 2.185,-2.362 2.058,-4.508 -0.038,-0.64 0.448,-2.108 -0.902,-2.37 0.587,-1.179 -0.839,-0.864 -1.23,-1.061 -0.316,-0.16 -0.724,-1.004 -1.027,-1.413 -0.986,0.491 -2.64,1.29 -4.458,0.991 0.577,0.536 0.802,1.503 0.452,1.451 -1.647,-0.241 -0.949,1.65 -0.965,2.271 -0.035,1.307 0.638,2.764 1.117,4.21 0.139,0 0.968,-0.083 1.212,0 0.158,0.054 0.542,0.652 0.635,0.646 m -138.75681,-84.492196 c 0.771,0.028 1.512,-0.968 2.525,-0.655 0.765,-1.111 1.645,-2.207 2.804,-2.556 0.317,-2.578 -1.024,-4.789 -2.842,-4.883 -0.908,-0.046 -1.647,-0.494 -2.412,-0.434 -0.371,-0.766 -0.962,-1.455 -1.742,-2.043 -0.139,0.69 0.662,1.493 0.634,2.451 -1.178,0.619 -3.047,1.563 -3.488,2.76 0.547,0.249 1.029,0.62 0.819,1.159 -0.271,0.696 0.09,1.636 -0.716,2.292 1.356,0.411 2.535,1.067 3.957,1.456 -0.149,-0.041 0.21,0.444 0.461,0.453 m 9.01271,2.60449 c 0.779,0.815 1.978,0.341 2.672,-0.35 0.166,-0.164 0.397,-0.566 0.338,-0.854 -0.172,-0.84 -0.674,-1.632 -1.105,-2.357 1.287,0.138 2.349,-1.303 2.274,-2.703 -0.029,-0.534 -0.528,-1.242 0.291,-1.549 0.666,-0.25 1.774,0.654 2.812,-0.243 1.328,-1.147 1.285,-3.676 -0.618,-4.663 -0.337,-0.176 -1.235,-0.14 -1.967,-0.846 0.157,0.642 0.045,1.158 -0.436,1.255 -0.235,0.048 -1.013,0.051 -0.771,0.586 0.393,0.87 -0.931,1.216 -0.59,2.004 -1.028,0.534 -2.447,1.162 -4.159,0.926 0,0.419 0.135,1.514 0,1.88 -0.122,0.331 -0.876,0.726 -0.723,1.264 0.376,1.32 2.602,0.821 1.701,2.704 -0.363,0.758 -0.876,2.125 -0.012,2.693 0.082,0.054 0.242,0.2 0.293,0.253 m 154.8134,41.179706 c 0.41,0.298 1.543,-0.004 2.041,-0.229 2.091,-0.945 3.544,-2.556 3.695,-5.209 0.032,-0.53 -0.546,-2.349996 -1.329,-3.046996 -2.212,-1.969 -5.916,-0.657 -7.029,1.749 -0.19,1.522996 -0.714,3.220996 0.032,4.485996 0.48,0.814 1.436,1.413 2.59,2.25 m 24.6875,28.531304 c 0.004,10e-4 0.264,0.21 0.26,0.213 1.375,-0.777 2.713,-1.06 3.474,-2.049 1.474,-1.915 1.138,-6.07 -0.892,-7.209 -0.499,-0.28 -0.996,-0.71 -1.75,-0.78 -1.82,-0.17 -3.21,0.864 -3.983,2.087 -0.265,-0.441 -1.843,-1.136 -1.11,-0.094 0.903,1.283 0.065,3.137 0.124,4.496 0.747,1.744 1.889,3.162 3.877,3.336 m -96.3339,-108.65141 c 0.114,0.452 0.492,0.456 0.886,0.353 1.831,-0.483 3.38,-3.03 2.524,-4.937 0.744,0.794 1.711,1.36 2.607,1.39 1.456,0.048 2.405,-0.562 2.771,-1.739 0.548,-1.758 -0.598,-3.148 -1.596,-3.771 -1.088,-0.68 -2.254,-0.078 -3.257,0.731 -0.777,-1.064 -2.239,-1.413 -3.373,-0.673 -0.847,0.55 -0.462,1.657 -1.397,2.015 0.214,0.996 -1.089,0.65 -1.598,0.785 0,0.317 0.08,1.064 0,1.262 -0.095,0.238 -0.704,0.8 -0.937,1.065 0.348,0.449 0.671,1.066 0.627,1.679 l 1.025,0.581 c -0.343,1.078 0.957,0.696 1.236,0.851 0.217,0.122 0.453,0.292 0.482,0.408 m -29.9141,88.156202 c 0.6,0.114 1.112,0.396 1.651,0.433 0.427,-0.785 1.279,-0.661 1.979,-0.807 -0.117,-0.811 0.399,-1.525 0.987,-1.774 0.033,-0.839 0.175,-1.883 0.029,-2.206 -0.684,-1.517 -2.276,-2.561 -4.177,-2.399 -1.243,0.107 -2.313,-1.037 -2.704,-2.033 -0.559,-0.061 -1.164,-0.236 -1.445,0.471 -0.231,0.583 -1.02,0.094 -1.438,-0.049 -0.141,1.024 -1.256,1.602 -1.603,2.312 -0.384,0.787 -0.355,1.948 -0.192,2.267 1.1,2.149 3.549,3.079 5.801,2.609 0.322,0.944 0.767,1.11 1.112,1.176 m 53.5137,-38.664992 c 0.374,-0.079 1.07,-0.236 1.756,-0.135 0.391,-0.901 1.281,-1.513 1.74,-2.278 0.555,-0.925 -0.181,-2.807 0.378,-3.453 1.109,-1.283 0.755,-4.323 -0.611,-5.655 -0.303,-0.296 -0.836,-0.66 -1.365,-0.615 -0.704,0.06 -1.455,0.067 -2.004,0.229 -0.443,0.131 -1.344,1.371 -1.795,1.628 -0.233,0.132 -0.743,-0.567 -1.036,0.008 0.169,0.224 0.746,0.431 0.429,0.851 -0.517,0.688 -0.003,1.806 -0.059,2.56 -0.038,0.503 -0.524,0.398 -0.807,0.374 0.142,0.927 -0.529,1.749 -0.706,2.25 1.033,0.956 0.443,2.666 1.363,2.997 1.164,0.418 1.777,1.437 2.717,1.239 m -90.0782,24.3232 c 1.12,0.392 2.378,0.155 3.899,0.09 0.429,-0.019 0.838,-1.803 1.752,-1.762 0.234,-1.266 0.825,-2.481 0.362,-3.483 -0.974,-2.109 -3.016,-3.608 -5.777,-3.217 -0.261,-1.77 -1.322,-2.15 -2.278,-2.482 -0.436,-0.151 -0.798,-0.609 -0.965,-1.084 -0.305,0.006 -0.964,-0.161 -0.858,0.047 0.476,0.941 -0.366,1.104 -0.768,1.284 -1.046,0.468 -2.019,1.011 -1.881,2.725 0.166,2.039 1.324,3.433 2.552,4.172 -0.298,1.117 0.784,1.022 1.012,1.048 1.236,0.138 1.921,1.19 2.203,2.183 0.071,0.247 0.447,0.374 0.747,0.479 m 74.0196,-90.3418 c 1.951,0.115 3.439,-0.801 4.096,-2.038 0.31,-0.584 0.333,-2.25 1.259,-2.363 0.607,-0.074 0.996,-0.675 1.101,-1.022 0.459,-1.501 -0.284,-3.019 -1.435,-3.089 -1.344,-0.505 -2.436,0.971 -2.902,1.594 -0.29,0.387 -0.688,-0.923 -1.098,-1.13 -0.258,-0.129 -0.967,0 -1.244,0 0.357,-1.481 -0.295,-2.578 -0.447,-2.823 -1.088,-1.738 -3.005,-2.642 -4.823,-2.242 -0.437,0.095 -0.519,0.591 -0.417,0.974 -1.221,-0.64 -1.196,1.106 -1.677,1.601 -0.596,0.614 0.165,1.178 0.222,1.738 -0.684,0.428 -1.664,1.048 -1.352,1.719 0.38,0.816 1.002,1.52 1.748,1.335 0.454,-0.112 0.911,-0.66 1.357,-0.391 0.173,0.105 0.467,0.87 0.565,1.05 1.658,-0.025 2.638,1.42 3.058,3.149 0.055,0.228 0.146,0.773 0.577,1.086 0.516,0.374 1.133,0.836 1.412,0.852 m 21.8281,122.376992 c 1.555,-0.561 3.149,-1.11 4.041,-2.422 0.527,-0.775 0.809,-1.953 0.684,-2.802 -0.098,-0.662 -0.472,-1.383 -0.09,-2.116 -1.05,-0.973 -2.458,-1.083 -2.941,-2.657 -0.625,1.03 -2.09,1.151 -2.319,0.625 -0.606,-1.399 -0.157,-2.847 0.877,-3.052 -0.195,-0.86 0.909,-0.82 0.915,-0.861 0.307,-2.11 0.521,-4.381 -0.806,-4.619 -1.052,-0.898 -2.963,-1.047 -3.942,0.697 0.048,-0.086 -0.422,-0.051 -0.511,0.351 -0.154,0.7 0.204,1.404 -0.01,1.973 -0.204,0.544 -0.981,0.487 -1.524,0.432 -0.185,1.051 -1.465,1.768 -2.616,1.908 1.129,0.508 1.812,1.861 0.849,2.633 0.61,0.624 1.012,1.556 0.471,2.402 0.582,-0.079 1.327,-0.819 1.717,-0.031 0.597,1.212 1.83,1.586 1.476,3.342 -0.154,0.768 0.289,1.331 0.716,1.803 0.419,0.463 0.25,1.158 0.246,1.854 0.823,0.265 2.138,0.767 2.767,0.54 m -74.6768,-15.905296 c 1.451,0.203 2.647,-1.273 2.733,-2.172 0.041,-0.432 0.691,-0.81 0.413,-1.1 -0.505,-0.53 -0.415,-1.361 -0.625,-1.859 -0.387,-0.918 -1.091,-1.719 -1.927,-2.122 l 0.566,-2.815 c 0.794,0.095 1.544,-0.727 1.916,-1.614 0.44,-1.046 0.45,-1.971 0.899,-2.998 1.238,0.016 1.684,-1.053 2.417,-1.787 -0.302,-0.743996 -0.302,-1.803996 0.078,-2.739996 -0.835,-0.665 -1.866,-1.183 -2.486,-1.247 -1.749,-0.18 -2.67,0.81 -3.541,1.549 -1.006,0.853 -2.055,1.857 -3.412,2.292 0.192,0.538996 -0.085,0.849996 -0.433,1.089996 -0.255,-0.171 -0.771,0.072 -0.381,0.451 -0.351,1.54 -0.907,2.955 -2.205,3.528 l 0.456,4.036 c 0.788,0.738 1.664,1.772 2.396,2.155 -0.125,1.304 0.277,2.853 -0.08,4.138 1.241,-0.124 1.698,1.826 2.916,0.922 0.082,0.08 0.337,0.298 0.3,0.293 m 92.2569,-21.785096 c 1.807,0.656 2.932,-0.365 3.768,-1.878 0.058,-0.56 0.006,-2.142 -0.405,-3.411 -0.552,0.258 -1.092,-0.327 -0.969,-0.868 0.313,-1.384 1.898,-0.855 2.251,-2.147 0.083,-0.301 0.641,0.2 0.392,0.605 -0.266,0.431 0.022,0.882 0.541,0.932 -0.135,1.157 1.154,1.951 1.701,2.421 1.101,0.95 2.627,1.248 3.717,0.34 0.505,-0.422 0.947,-1.281 1.651,-0.962 0.144,-1.289 0.874,-2.391 1.225,-3.616 0.231,-0.801 -0.238,-2.131 -0.537,-2.431 -1.146,-1.152 -1.858,-2.918 -3.949,-3.201 -1.169,0.315 -2.549,0.766 -3.699,1.939 0.136,0.239 -0.036,0.709 -0.622,0.306 -0.479,-0.328 -1.431,-1.067 -0.893,-1.893 -0.784,-0.176 -1.595,-0.735 -2.168,-1.481 -0.958,0.182 -2.008,0.053 -2.895,0.399 -1.834,0.714 -2.863,3.035 -2.405,5.459 0.148,0.774 0.247,1.849 1.034,2.19 0.615,0.266 2.117,1.142 1.882,1.587 -0.569,1.079 -1.444,2.314 -1.257,2.79 0.519,1.311 0.93,2.409 1.637,2.92 m -90.3604,-18.0703 c 0.568,0.441 1.744,0.227 2.206,-0.442 0.434,-0.625 0.437,-1.651 -0.123,-2.377 -0.139,-0.179 -0.812,-0.565 -0.561,-1.332 0.16,-0.486 0.48,-0.828 0.862,-1.064 0.628,-0.385 1.126,0.125 1.578,-0.158 1.037,-0.65 2.632,-2.264 1.554,-3.997 -0.115,-0.183 0,-1.193 0,-1.643 1.409,0.394 2.552,-0.835 2.691,-1.955 0.06,-0.478 0.086,-1.08 0.054,-1.24 -0.259,-1.318 -0.904,-2.831 -2.249,-2.81 -1.667,0.027 -3.042,0.449 -3.993,1.209 0.169,0.371 -0.192,0.702 -0.754,0.538 -0.859,-0.25 -1.798,-0.036 -2.564,-0.343 -0.402,-0.161 -0.42,-0.777 -0.473,-1.387 -0.789,0.044 -0.441,1.382 -0.451,2.247 -1.007,-0.463 -2.012,-1.342 -3.037,-1.741 0.73,-1.811 -0.19,-3.409 -1.285,-4.04 -0.872,-0.503 -2.432,-0.952 -3.114,0.324 -0.349,0.653 -0.769,1.621 -1.831,1.844 0.247,0.754 1.877,1.211 1.225,2.436 -0.37,0.695 0.324,0.707 0.629,0.746 0.733,0.09 0.649,0.989 0.435,1.331 -0.858,1.368 -0.996,3.203 -0.995,5.189 0,0.502 -0.308,1.575 0.227,2.046 0.626,0.55 1.882,0.075 2.336,0.762 0.204,0.309 -0.033,1.123 0.217,0.961 0.769,-0.494 0.836,0.473 0.838,0.458 -0.215,1.604 1.482,1.611 1.406,2.951 -0.442,-0.127 -1.258,-0.173 -0.796,0.277 0.398,0.388 1.08,-0.027 1.404,-0.556 0.455,-0.744 1.559,-0.757 2.729,-0.117 -0.414,-1.363 -0.397,-2.856 0.994,-3.617 0.374,-0.203 0.842,0.992 1.757,1.433 -0.524,0.63 -2.138,1.482 -1.685,2.928 0.143,0.455 0.415,0.863 0.769,1.139 m 41.6797,13.9384 c 1.576,0.696 3.442,0.297 4.34,-0.956 0.275,-0.384 0.175,-0.844 0.208,-1.232 0.848,0.44 0.878,-0.67 1.074,-1.122 0.442,-1.019 0.335,-2.8 -0.184,-3.193 -1.514,-1.143 -3.227,-3.177 -2.756,-6.024 -0.436,-0.136 -0.798,-0.542 -0.562,-0.886 0.205,-0.298 0.609,-0.489 0.779,-0.367 1.543,1.112 3.43,0.993 4.776,0.066 0.647,-0.982 1.928,-2.1 1.182,-3.83 -0.802,-1.864 -1.808,-3.331 -2.362,-4.758 -1.455,-0.306 -3.16,-0.661 -4.889,0.008 -0.079,0.827 -1.017,1.111 -1.435,1.691 -0.682,0.947 0.013,2.349 -0.843,3.004 -0.655,0.502 -1.224,-0.193 -1.643,-0.666 -0.379,-0.426 0.145,-0.891 -0.011,-1.429 -0.392,0.271 -0.564,1.308 -0.941,0.698 -0.659,-1.065 -1.822,-1.209 -2.713,-0.739 -1.237,0.649 -2.48,1.531 -3.389,2.51 0.782,1.168 -0.277,2.181 -0.109,3.029 0.123,0.611 1.026,0.921 0.734,1.646 -1.169,-0.215 -1.88,0.911 -2.649,2.158 -0.094,0.154 0.108,1.009 -0.275,1.638 0.726,0.427 0.455,1.231 1.032,1.69 1.316,1.045 3.674,0.27 4.539,-0.764 0.398,0.445 0.835,0.632 0.695,0.976 -0.437,1.069 -1.535,2.095 -2.744,1.993 -0.5,-0.043 -1.342,0.795 -0.769,1.615 0.654,-0.346 1.211,-1.561 2.253,-1.388 0.366,0.061 0.374,0.629 0.14,0.839 -0.288,0.255 -0.487,0.664 -0.491,1.095 l 2.153,-0.333 c 0.581,0.869 1.254,1.542 1.969,2.254 0.759,0.755 1.96,0.367 2.891,0.777 m -27.2676,3.24609 c 1.516,0.347 3.056,0.721 3.692,-0.67 0.412,-0.898 1.072,-1.948 0.691,-2.999 -0.148,-0.408 -1.359,-1.543 -1.816,-2.061 0.704,-1.153 0.596,-2.796 1.444,-4.079 0.26,-0.392 0.569,-1.186 1.095,-0.846 -0.882,0.749 0.559,1.281 0.018,2.092 -0.283,0.424 -1.289,1.296 -0.477,1.756 0.306,-0.714 1.013,-0.631 1.338,-0.356 0.506,0.427 1.272,0.491 1.699,0.177 0.673,-0.496 1.498,-0.261 1.908,-1.167 0.897,-1.982 -0.45,-3.913 -1.298,-4.38 -1.119,-0.618 -0.17,-2.14 -0.305,-2.952 -0.066,-0.398 -0.633,-0.667 -0.704,-1.034 1.274,-0.886 1.7,-2.856 0.672,-4.728 0.003,0.004 -0.549,-0.226 -0.33,-0.405 0.892,-0.731 0.384,-1.775 0.698,-2.645 -0.841,-0.361 -0.482,-1.415 -0.481,-2.006 10e-4,-1.003 -0.272,-2.124 -0.981,-2.618 -1.127,-0.785 -1.637,-1.96 -3.68,-1.847 -0.976,0.054 -1.62,1.172 -2.558,1.349 -0.942,0.178 -0.802,1.603 -1.454,1.789 l -0.576,5.22 c 0.587,0.218 0.648,-0.917 1.331,-0.794 0.265,1.209 -0.777,2.099 -0.72,3.093 0.022,0.387 0.779,0.876 0.363,1.16 -1.133,0.774 -1.956,2.273 -2.034,4.085 -0.013,0.302 -0.444,0.82 -1.007,0.455 -0.262,-0.172 -0.577,-0.805 -1.137,-0.548 0.319,0.83 -0.695,1.039 -1.187,1.594 -0.389,0.439 -0.581,1.549 -1.306,2.169 -0.183,0.156 -0.943,-0.016 -0.812,0.133 1.14,1.294 1.366,3.366 2.001,4.632 1.314,0.978 2.895,1.352 4.407,1.276 -0.254,1.568 0.694,3.116 0.683,4.727 0.247,0.157 0.507,0.356 0.823,0.428 m 48.2491,17.722706 c 0.796,0.332 2.108,-0.728 3.335,-0.424 0.441,-0.712 1.243,-1.546 1.411,-2.15 0.494,-1.782 -0.095,-3.454 -0.279,-4.773 -0.229,0.207 -0.619,0.143 -0.86,-0.038 -1.036,-0.775 -2.409,-2.276 -1.476,-4.276996 0.381,0.078 1.1,0.332996 1.246,1.069996 0.832,-0.07 1.663,0.157 2.388,0.116 0.391,-0.02 0.718,-0.502 0.881,-0.954 0.244,0 0.921,-0.056 0.819,0 2.41,-1.320996 3.607,-5.179996 2.422,-7.692996 -0.219,-0.463 0.25,-0.996 0.124,-1.606 0.847,-0.142 2.042,0.1 2.443,-0.732 0.499,-1.036 1.465,-0.55 1.759,-1.877 0.248,-1.121 0.997,-2.099 0.8,-3.252 -0.326,-1.911 -1.39,-3.249 -2.533,-4.303 -0.384,-0.354 -0.052,-1.274 -0.131,-1.229 -1.384,0.809 -2.902,0.384 -4.337,0.432 -1.551,0.051 -2.463,1.753 -3.59,2.161 0.807,0.569 0.057,2.064 -0.336,2.726 0.591,1.008 0.793,2.303 0.281,3.437 0.556,-0.068 1.127,-0.172 1.369,0.393 0.452,1.053 -0.732,0.572 -0.649,0.501 -1.242,1.065 -2.359,1.606 -3.388,2.312 -0.242,0.166 -0.916,1.921 -1.158,2.431 -0.409,-0.031 -1.008,0.257 -1.249,-0.372 -0.076,-0.198 -0.326,-1.174 -0.622,0.395 -0.136,0.718 1.763,0.06 1.766,1.411 0.001,0.556 -0.222,1.702 -0.906,1.406 -0.03,-0.609 -0.567,-0.654 -0.848,-0.354 -0.394,0.418 -0.739,-0.15 -0.954,-0.466 0.407,-0.996 -1.093,-1.16 -0.77,-1.934 0.131,-0.313 0.396,-1.284 -0.326,-0.824 -0.873,-0.894 -1.011,-2.111 -1.714,-3.215 -0.408,0.565 0.199,1.203 0.038,1.74 -1.113,-0.123 -2.182,0.58 -3.181,-0.493 0.731,1.654 -0.867,0.964 -1.267,1.018 -1.215,0.162 -0.709,1.351 -1.624,1.899 -0.75,0.451 -0.591,1.861 -1.238,2.714 0.32,0.108 0.767,0.365 0.712,0.709 -0.093,0.591 -0.282,1.12 -0.227,1.711 0.503,0.217 1.256,0.744 1.013,1.482996 0.679,0.162 1.583,0.054 2.022,0.389 0.956,0.73 1.485,1.947 1.505,3.544 0.342,-0.369 0.985,-1.031 1.352,-0.334 0.264,0.5 0.12,1.232 0.131,1.98 0.442,-0.711 1.218,-0.791 1.883,-0.512 0.618,0.26 1.105,1.08 1.143,1.691 0.04,0.668 -0.067,1.431 0.099,2.099 0.148,0.592 0.907,0.731 1.19,1.403 0.573,-0.213 0.964,0.404 1.531,0.641 m -69.8028,-20.971706 c 0.141,0.123 0.975,0.095 1.171,0 0.257,-0.124 0.881,-1.081 1.134,-1.068 2.346,0.113 3.309,-1.923 3.786,-3.788 0.253,-0.993 -0.716,-2.123 -1.497,-2.961 0.426,-0.879 -0.62,-0.773 -0.977,-0.845 -0.614,-0.126 -0.738,-0.889 -0.876,-1.72 -0.147,-0.889 -0.748,-2.138 -1.346,-3.112 -1.128,0.309 -1.824,-0.642 -2.838,-0.819 -0.442,-0.077 -1.62,-0.366 -2.703,-0.74 0.198,0.399 -0.012,1.493 -0.802,1.263 -0.855,-0.251 -1.909,0.107 -2.435,-0.14 -0.428,-0.202 -0.051,-0.916 0.245,-0.713 0.843,0.578 1.535,-0.2 1.659,-0.845 0.113,-0.596 -0.131,-0.914 -0.527,-0.931 -0.681,-0.029 -1.01,-1.083 -1.48,-1.064 -0.848,0.032 -1.573,0.514 -2.271,0.602 -0.484,-0.875 -1.371,-0.083 -1.929,-0.19 0.129,-0.456 0.251,-0.801 0.171,-1.3 -0.36,0.828 -0.649,-0.077 -0.54,-0.328 -0.537,-0.732 0.396,-1.149 0.35,-1.451 -0.176,-1.146 -0.776,-2.142 -0.724,-2.974 0.046,-0.735 1.18,-1.001 1.77,-0.422 0.298,0.293 0.942,0.304 1.161,-0.19 0.52,-1.177 1.686,-1.599 2.299,-2.572 -0.558,-1.02 -0.179,-2.054 0.026,-2.999 0.076,-0.346 1.328,-1.274 1.494,-1.791 0.694,-2.147 -0.417,-3.172 0.052,-5.098 1.015,-1.159 1.335,-2.51 1.032,-3.814 -0.082,-0.355 0.65,-1.508 0.599,-1.794 -0.231,-1.293 -0.341,-2.849 0.175,-4.279 0.019,-0.055 -0.66,-0.09 -0.483,-0.421 0.626,-1.169 0.264,-2.59 -0.023,-3.49 0.38,-0.187 0.862,-0.282 0.782,-0.729 -1.835,-0.573 -3.851,-0.489 -5.169,0.947 -0.194,0.212 -0.24,-0.744 -0.237,-1.26 0.007,-0.791 0.467,-1.618 1.293,-1.555 0.368,0.884 1.41,0.087 1.624,0.951 0.468,-1.293 1.66,-1.573 2.601,-2.61 0.071,-0.078 0.887,-0.058 1.03,0.058 0.303,0.243 0.536,0.715 0.419,1.07 -0.161,0.489 -0.616,0.721 -1.034,1.086 0.234,0.37 1.08,0.206 1.59,0.213 l 0,1.117 -1.227,0 c -0.383,0.787 0.566,0.439 0.693,0.551 0.633,0.556 1.158,1.253 0.883,2.197 0.443,0.247 1.175,0.546 1.153,1.145 -0.041,1.192 -1.026,2.147 -1.239,2.691 0.449,1.913 1.413,3.726 2.695,4.125 2.92,0.911 6.152,-0.459 6.888,-3.389 0.076,-0.303 0.322,-0.721 0.795,-0.748 0.771,-0.042 2.074,0.106 2.366,-1.146 0.225,-0.967 0.858,-1.783 1.589,-2.299 -0.445,-1.474 0.166,-2.491 -0.128,-3.976 -0.835,-1.735 -2.381,-3.335 -4.198,-3.695 -0.703,-0.139 -1.852,-0.836 -3.019,-0.598 -0.641,0.13 -1.396,-0.774 -2.416,-1.027 0.58,1.023 1.843,1.273 1.95,2.402 -0.751,0.181 -2.841,0.983 -3.354,0.721 -0.966,-0.493 -2.088,0.663 -3.249,-0.651 0.728,-1.098 1.237,-3.288 1.653,-4.812 1.409,-0.66 2.352,-2.571 1.529,-4.307 -0.389,-0.824 0.593,-1.241 0.889,-1.807 0.508,-0.971 -0.368,-2.731 -1.167,-2.418 -0.991,0.389 -2.469,0.538 -4.5,0.63 1.278,2.165 -0.017,3.991 -0.76,4.612 -0.955,0.8 -2.4,0.216 -2.859,1.712 l -1.454,0 c -0.283,-1.14 -1.375,-2.505 -2.951,-2.132 -0.195,0.046 -0.819,0.927 -1.05,0.942 -1.063,0.066 -2.147,0.467 -3.041,0.261 -0.599,-0.139 -0.602,-1.256 0.007,-1.434 0.512,-0.152 1.416,-0.008 1.613,-0.878 0.173,-0.761 -0.317,-1.945 -1.254,-1.816 -0.989,0.137 -1.404,-1.142 -2.022,-1.308 -1.075,-0.289 -2.208,-0.331 -3.245,0.036 0.238,1.034 -1.223,1.405 -0.975,2.09 0.232,0.641 0.627,0.963 1.124,1.175 -0.213,0.479 -0.479,1.125 0.146,1.374 -0.384,0.863 -1.26,1.575 -2.095,1.265 0.301,0.794 1.42,1.03 1.204,1.59 -0.146,0.378 -1.377,0.893 -1.578,1.228 -0.58,0.967 1.136,1.028 0.644,1.671 -0.666,0.871 -1.816,1.502 -2.484,2.508 -0.196,0.296 0.552,0.764 0.511,1.393 -0.149,2.282 -1.973,2.915 -3.496,3.467 0.241,-0.711 0.292,-1.854 -0.483,-2.303 -0.379,-0.22 -0.887,-0.11 -1.38,-0.122 -0.127,0.387 -0.457,1.042 -0.929,0.717 -1.01,-0.695 -2.209,-0.739 -2.898,-1.827 -0.915,0.47 -1.891,0.08 -2.946,-0.091 0.12,0.379 0.464,1.282 -0.091,0.987 -0.339,-0.181 -0.664,-0.419 -1.002,-0.328 -0.299,-0.612 0.283,-0.605 0.324,-0.607 1.4,-0.076 1.807,-1.303 1.599,-2.836 -0.293,-2.165 -2.53,-2.761 -3.944,-2.77 -0.702,-0.004 -0.922,-0.073 -0.717,0.288 -0.532,0.363 -0.723,0.986 -0.457,1.564 0.37,0.806 -0.921,0.804 -0.772,1.16 0.598,1.416 1.758,2.275 2.786,3.091 -0.496,0.326 -0.43,0.921 -0.658,1.057 -0.654,0.393 -1.363,-0.07 -2.008,-0.469 -0.459,0.427 0.595,0.873 0.281,1.491 -0.332,0.649 -1.114,0.748 -1.452,1.268 -0.382,0.585 0.442,1.546 -0.109,1.991 0.427,2.093 2.087,3.503 3.608,4.184 1.37,-0.817 2.907,-0.09 4.149,0.071 0.586,0.077 1.416,-0.548 2.112,-0.033 0.373,0.275 0.791,-0.56 0.579,-1.005 -0.277,-0.586 -1.124,-0.791 -1.205,-1.517 1.772,-0.5 2.805,-1.943 3.163,-3.858 0.933,0.009 1.579,0.458 2.586,0.475 -0.287,2.024 0.364,3.98 1.087,5.834 1.102,0.255 2.436,0.221 3.323,0.636 1.393,-0.432 2.676,-1.008 3.215,-2.26 0.202,-0.472 0.442,-0.782 0.892,-0.583 0.279,-0.751 0.852,-0.365 1.215,-0.28 0.788,0.186 0.725,1.154 0.755,1.651 -0.704,-0.231 -0.186,1.066 0.112,1.489 0.351,0.499 0.881,0.438 1.348,0.679 0.646,0.333 1.528,0.25 2.394,-0.056 0.223,0.721 -0.3,1.73 0.695,2.107 -0.965,0.78 -1.804,-0.248 -2.651,-0.614 -0.246,0.64 0.4,1.485 0.618,2.029 -0.606,0.265 -0.904,1.137 -1.678,0.824 -1.104,-0.449 -0.237,-1.836 -1.433,-2.406 -0.328,-0.158 0.192,-0.642 0.594,-0.751 0.355,-0.096 1.376,-0.007 0.927,-0.466 -0.734,-0.75 -1.792,-0.98 -2.427,-1.201 -0.74,0.825 -0.369,1.632 -0.219,2.29 -0.525,-0.033 -1.322,0.399 -1.54,-0.506 -0.136,-0.567 -0.763,-0.823 -1.242,-1.074 -0.634,-0.333 -1.543,-0.208 -2.475,-0.33 0.385,0.375 0.756,0.944 0.364,1.242 -0.467,0.356 -1.301,0.86 -1.038,1.537 0.166,0.426 0.8,0.752 0.582,1.31 0.751,-0.31 1.026,0.948 1.876,0.607 0.158,-0.064 1.34,-0.028 1.717,0.03 0.5,0.075 0.322,0.798 0.155,1.037 0.682,0.152 1.361,0.471 2.041,0.29 0.308,-0.083 1.246,-0.798 1.505,-0.695 1.204,0.477 0.247,1.775 1.031,2.658 -0.251,0.288 -0.465,0.862 -0.772,0.839 -1.53,-0.118 -3.058,-0.257 -4.6,0.149 -0.296,-0.426 -0.034,-1.716 -0.894,-1.389 0.212,1.092 0.928,2.504 -0.048,3.343 -0.339,0.29 -0.999,0.703 -0.724,0.999 0.804,0.862 -0.396,1.661 0.14,2.024 1.547,1.049 4.369,0.946 5.794,0.107 0.03,1.011 0.891,1.882 0.206,2.477 -0.731,0.636 -1.44,1.242 -2.107,1.393 l -0.844,4.33 c -0.761,-0.121 -1.152,0.604 -0.748,0.875 0.925,0.621 1.679,1.434 1.911,2.135 -0.986,0.293 -1.837,-0.534 -2.28,-0.653 -1.512,-0.405 -3.195,-0.75 -5.081,-1.069 -0.008,-0.926 -0.998,-1.701 -1.86,-1.103 -0.596,0.415 -1.443,0.875 -1.424,1.684 0.013,0.482 1.132,0.893 1.157,1.458 0.055,1.33 0.207,2.653 0.666,3.668 -0.276,0.282 -1.096,-0.134 -0.83,-0.726 -0.502,-0.768 -1.364,-1.1 -1.806,-1.904 -0.213,-0.388 -0.609,0.007 -0.432,0.434 0.254,0.609 1.005,0.63 1.122,1.169 0.106,0.485 0.291,1.116 -0.162,1.37 -0.438,0.248 -1.047,0.064 -1.525,0.003 -0.566,-0.072 0.19,0.617 -0.192,0.845 -0.298,0.18 -1.234,0.372 -1.697,0.537 0.812,-1.723 0.085,-3.15 -0.964,-3.759 -0.984,-0.57 -1.194,-1.799 -2.339,-2.065 -0.951,-0.221 -2.107,0.08 -2.643,0.788 -0.778,1.028 -0.349,2.085 -0.359,3.413 -0.924,-0.849 -2.129,-1.13 -3.064,-1.292 -0.724,1.014 -1.268,-0.182 -2.143,0.151 -0.239,-0.782 -0.5,-1.836 -1.184,-2.358 -0.256,-0.194 -0.746,0.37 -0.606,0.508 1.037,1.02 0.882,2.815 -0.028,3.998 -0.452,-0.112 -1.107,0.813 -1.021,1.586 0.098,0.891 1.068,0.22 1.104,0.989 -0.72,0.489 -0.356,1.354 -0.392,1.895 1.407,-0.012 2.174,1.023 3.21,1.531 0.566,0.277 1.105,1.209 1.232,1.106 1.296,-1.05 2.814,-0.989 3.977,-1.556 -0.149,-0.639 1.159,-1.487 0.166,-2.061 -0.695,-0.403 -0.134,-1.458 -0.017,-2.294 0.966,0.002 0.475,1.725 1.11,1.299 1.5,-1.011 2.386,0.693 3.569,-0.187 0.33,-0.245 0.022,0.53 -0.16,0.673 -0.847,0.673 -2.001,1.275 -2.248,2.223 -0.524,2.012 0.527,3.512 1.223,4.516 2.397,1.194 4.821,-0.252 5.555,-2.009 0.343,-0.823 0.889,0.221 1.567,-0.131 0.995,-0.517 2.312,-1.26 2.585,-2.083 0.444,-1.336 2.316,-0.243 2.517,0.222 0.722,-0.072 1.305,-0.648 1.729,-0.098 0.191,0.246 0.007,0.767 0.27,0.92 0.413,-0.621 0.585,-1.699 1.457,-1.666 0.523,0.02 0.832,0.651 1.245,0.647 0.644,-0.004 1.371,-0.023 1.982,-0.272 0.404,-0.165 0.843,-0.754 1.616,-0.378 0.413,0.201 -0.708,0.89 0.31,0.616 1.527,-0.412 3.028,-0.479 4.42,-1.028 0.091,-0.036 0.396,-0.813 0.509,-0.871 0.626,-0.326 1.483,0.019 1.409,0.677 -0.034,0.299 -0.44,0.488 -0.561,0.854 0.199,0.241 0.59,0.424 0.54,0.817 -0.741,0.091 -1.416,-0.277 -2.12,-0.324 -0.174,0.967 -1.202,1.057 -1.725,1.036 -0.335,0.627 -0.644,1.293 -0.378,1.582 0.677,0.737 0.96,2.201 2.006,1.999 1.254,-0.242 2.535,-1.089 2.707,-2.733 0.029,-0.271 -0.794,-0.606 -0.452,-1.078 0.542,-0.746 1.669,-0.291 2.076,0.351 0.421,0.663 -0.128,1.42 -0.424,2.317 0.718,-0.586 1.069,-1.633 1.563,-1.491 1.421,0.406 0.635,2.056 1.762,2.821 0.468,0.316 0.975,0.568 1.42,0.959 m 210.417,92.604506 c -0.106,0.31 0.3,0.206 0.354,0.051 0.107,-0.31 -0.3,-0.207 -0.354,-0.051 m 8.36089,2.4687 c -0.516,0.131 0.117,0.456 0.205,0.622 0.516,-0.132 -0.118,-0.458 -0.205,-0.622 m -6.564,-115.945296 c -0.063,-0.223 -0.314,-0.363 -0.334,-0.101 -0.009,0.119 0.14,0.329 0.364,0.258 0.112,-0.032 0.298,-0.23 -0.03,-0.157 m -91.78029,-4.1474 c -0.03,0.144 0.197,0.492 0.359,0.238 0.134,-0.213 -0.189,-0.528 -0.264,-0.443 -0.068,0.074 -0.089,0.174 -0.095,0.205 m 112.9527,44.4043 c -0.644,0.21 -0.187,0.538 0.023,0.433 0.347,-0.171 -0.085,-0.412 -0.023,-0.433 m -2.0093,80.5946958 c -0.295,-0.197 -0.309,0.216 -0.083,0.271 0.171,0.038 0.543,0.214 0.513,-0.084 -0.02,-0.208 -0.284,-0.088 -0.43,-0.187 m -24.9961,51.6904002 c -0.11,0.209 0.124,0.471 0.354,0.457 0.493,-0.028 0.064,-0.403 -0.036,-0.467 -0.1,-0.064 -0.246,-0.126 -0.318,0.01 m 25.8647,-176.513696 c -0.032,0.099 -0.384,0.311 -0.454,0.367 0.053,0.234 0.24,0.242 0.306,0.15 0.146,-0.21 0.444,-0.534 0.534,-0.645 -0.112,-0.123 -0.319,-0.06 -0.386,0.128 m 5.4898,24.3233 c -0.066,0.218 0.342,0.482 0.443999,0.137 0.065,-0.22 -0.343999,-0.485 -0.443999,-0.137 m -3.44,-11.48631 c -0.256,0.168 -0.006,0.383 0.198,0.465 0.153,0.06 0.434,0.691 0.452,0.211 0.011,-0.266 -0.388,-0.451 -0.65,-0.676 m -123.8784,-15.1914 c -0.126,0.272 0.175,0.406 0.279,0.562 0.662,-0.131 0.017,-0.587 -0.174,-0.768 -0.036,0.019 -0.066,0.121 -0.105,0.206 m 99.16549,8.01361 c -0.056,0.266 0.54,0.202 0.792,-0.014 -0.077,-0.247 -0.715,-0.356 -0.792,0.014 m -10.26409,34.3692 -0.391,0.316 c 0.082,0.205 0.295,0.338 0.52,0.294 0.549,-0.109 0,-0.492 -0.129,-0.61 m 6.7529,4.277296 c 0.027,0.263 0.44,0.317 0.575,0.093 0.129,-0.216 -0.14,-0.575 -0.369,-0.439 -0.111,0.066 -0.22,0.2 -0.206,0.346 m -17.53421,65.379904 c 0.068,0.281 0.329,-0.196 0.354,-0.339 0.038,-0.205 0.127,-0.687 -0.114,-0.5 -0.197,0.154 -0.338,0.439 -0.24,0.839 m 39.0816,12.806596 c -0.114,0.187 0.199,0.335 0.305,0.491 0.315,-0.041 0.419,-0.526 0.141,-0.695 -0.172,-0.104 -0.332,0.013 -0.446,0.204 m 10.0014,-134.163096 c -0.312,-0.12 -0.666,-0.208 -0.963,-0.146 -0.147,0.029 -0.357,0.235 -0.361,0.35 0.331,0.032 0.646,0.131 0.942,0.089 0.086,-0.013 0.301,-0.244 0.382,-0.293 m -33.79289,79.794996 c 0.037,0.156 0.627,0.67 0.846,0.915 0.239,-0.358 -0.396,-0.877 -0.674,-1.224 -0.064,0.035 -0.21,0.146 -0.172,0.309 m -72.6148,-96.293996 c 0.165,0.327 0.268,0.775 0.539,0.805 0.648,0.069 0.018,-0.506 -0.028,-0.712 -0.06,-0.283 -0.345,-0.485 -0.489,-0.305 -0.031,0.039 -0.032,0.191 -0.022,0.212 m 68.4649,1.2549 c 0.016,0.172 0.166,0.373 0.383,0.345 0.203,-0.027 0.495,-0.126 0.519,-0.355 0.026,-0.235 -0.173,-0.639 -0.392,-0.52 -0.229,0.127 -0.534,0.243 -0.51,0.53 m 16.0532,208.631796 c 0.032,0.168 0.17,0.51 0.422,0.373 0.302,-0.162 0.471,-0.536 0.443,-0.794 -0.034,-0.328 -0.549,-0.404 -0.677,-0.095 -0.066,0.158 -0.225,0.315 -0.188,0.516 m 5.5395,-162.065396 c 0.16,0.309 0.366,0.605 0.529,0.914 l 0.463,-0.374 c -0.411,-0.232 -0.171,-0.766 -0.393,-0.923 -0.182,-0.127 -0.457,-0.212 -0.549,-0.055 -0.049,0.085 -0.085,0.371 -0.05,0.438 m -7.52191,-42.6953 c 0.196,0.462 0.47,0.88 0.823,1.225 0.187,0.179 0.549,-0.113 0.411,-0.333 -0.262,-0.418 -0.614,-0.773 -1.024,-1.061 l -0.21,0.169 z m 23.872,11.373 c 0.552999,0.309 1.330999,0.271 1.988999,-0.145 -0.496,-0.524 -1.396,-0.243 -1.988999,0.145 m -107.28409,10.5108 c 0.098,0.187 0.262,0.524 0.618,0.423 0.358,-0.104 0.347,-0.516 0.298,-0.726 -0.049,-0.21 -0.275,-0.412 -0.529,-0.325 -0.241,0.083 -0.557,0.307 -0.387,0.628 m 23.71089,-10.14651 c -0.14,0.063 -0.545,0.439 -0.674,0.544 0.176,0.196 0.295,0.571 0.57,0.516 0.302,-0.061 0.682,-0.303 0.682,-0.549 -0.002,-0.314 -0.265,-0.653 -0.578,-0.511 m 67.26511,3.52051 c 0.285,0.223 1.187,-0.724 1.578,-1.014 -0.143,-0.199 -0.449,-0.231 -0.673,-0.164 -0.174,0.052 -0.696,0.51 -0.834,0.675 -0.044,0.055 -0.048,0.332 -0.071,0.503 m -9.46871,15.6377 c 0.03,0.305 0.349,0.563 0.642,0.452 0.393,-0.148 0.698,-0.795 0.34,-0.953 -0.308,-0.139 -0.72,0.016 -0.946,0.33 -0.01,0.017 -0.036,0.15 -0.036,0.171 m -60.97799,-6.3691 c 0.056,0.425 0.482,0.39 0.701,0.358 0.32,-0.045 0.425,-0.455 0.284,-0.723 -0.131,-0.256 -0.533,-0.442 -0.815,-0.224 -0.216,0.168 -0.189,0.425 -0.17,0.589 m 85.61319,69.1533 c 0.147,0.343 0.291,0.791 0.766,0.818 0.284,-0.459 0.16,-1.227 -0.316,-1.604 -0.188,-0.148 -0.491,0.009 -0.48,0.219 0.008,0.2 -0.024,0.445 0.03,0.567 m -12.7866,-83.6358 c -0.065,0.267 0.256,0.714 0.589,0.473 0.412,-0.296 0.917,-0.847 0.814,-1.551 -0.325,0.001 -0.713,0.501 -1.142,0.635 -0.066,0.022 -0.236,0.338 -0.261,0.443 m 5.52301,-3.8398 c -0.207,0.247 0.509,-0.005 0.842,-0.211 0.283,-0.175 0.733,-0.681 1.224,-1.16 0.24,-0.234 -0.378,-0.614 -0.566,-0.361 l -1.5,1.732 z m -67.9419,10.52639 c 0.045,0.458 0.513,0.473 0.852,0.472 0.184,0.002 0.526,-0.169 0.424,-0.433 -0.103,-0.266 0.134,-0.68 -0.121,-0.809 -0.191,-0.096 -0.42,-0.125 -0.576,-0.069 -0.151,0.055 -0.528,0.399 -0.617,0.526 -0.027,0.042 0.03,0.247 0.038,0.313 m 21.77189,-0.52249 c 0.131,0.318 0.375,0.766 0.811,0.793 0.29,0.017 0.925,-0.313 0.829,-0.838 -0.056,-0.315 -0.415,-0.528 -0.716,-0.499 -0.302,0.031 -0.675,0.048 -0.873,0.316 -0.027,0.037 -0.069,0.185 -0.051,0.228 m -10.78119,-16.9053 c 0.244,0.341 0.47,0.903 0.773,0.804 0.499,-0.166 0.87,-0.517 0.678,-0.926 -0.131,-0.281 -0.336,-0.676 -0.576,-0.663 -0.343,0.014 -0.668,0.032 -0.806,0.293 -0.044,0.09 -0.102,0.446 -0.069,0.492 m 6.0386,15.1739 c -0.004,0.356 0.332,1.021 0.875,0.872 0.287,-0.077 0.794,-0.12 0.797,-0.682 0.002,-0.303 -0.332,-0.784 -0.644,-1.132 -0.201,0.394 -0.716,0.009 -0.847,0.292 -0.11,0.229 -0.18,0.455 -0.181,0.65 m -60.4058,1.9775 c 0.075,0.23 0.418,0.287 0.529,0.512 0.427,-0.259 1.252,-0.398 1.101,-1.164 -0.098,-0.495 -0.643,-0.662 -1.041,-0.827 -0.134,0.109 -0.645,0.429 -0.743,0.6 -0.135,0.231 0.048,0.556 0.154,0.879 m 46.1665,-11.7119 c 0.011,0.466 0.523,0.357 0.748,0.307 0.526,-0.119 1.169,-0.5 0.944,-1.07 -0.168,-0.425 -0.716,-0.903 -1.235,-0.581 -0.269,0.167 -0.544,0.421 -0.58,0.667 -0.024,0.176 0.122,0.555 0.123,0.677 m -42.6123,11.333 c 0.249,0.079 0.956,0.208 1.365,0.343 0.655,0.213 1.119,-0.591 1.26,-1.084 0.134,-0.479 -0.526,-0.259 -0.687,-0.322 -0.84,-0.333 -1.245,0.452 -1.938,1.063 m 30.3901,-8.0586 c 0.167,0.451 0.374,1.14 0.695,1.066 0.854,-0.192 1.395,-0.895 1.184,-1.468 -0.164,-0.442 -0.625,-0.89 -1.161,-0.623 -0.302,0.152 -0.617,0.44 -0.772,0.706 -0.033,0.055 0.033,0.259 0.054,0.319 m 29.0879,6.4727 c 0.038,0.227 0.418,0.466 0.512,0.481 0.858,0.126 1.238,-0.384 1.651,-0.823 0.128,-0.135 0.041,-0.626 -0.276,-0.811 -0.192,-0.112 -0.291,-0.309 -0.287,-0.307 -0.722,-0.366 -1.381,-0.166 -1.688,0.374 -0.235,0.409 0.025,0.689 0.088,1.086 m -56.7363,-8.5284 c 0.123,0.468 0.488,0.996 1.06,0.963 0.122,-0.007 0.518,0.082 0.592,0.041 0.764,-0.413 0.919,-1.383 0.394,-2.03 -0.158,-0.196 -0.66,-0.448 -0.929,-0.298 -0.532,0.299 -1.309,0.584 -1.117,1.324 m 11.1777,-7.08301 c 0.15,0.501 0.512,0.882 0.888,1.319 0.401,-0.19 0.98,-0.109 1.234,-0.396 0.39,-0.44 0.471,-0.891 0.449,-1.243 -0.028,-0.377 -0.222,-0.795 -0.439,-0.866 -0.727,-0.238 -1.684,-0.235 -2.001,0.683 -0.057,0.165 -0.185,0.322 -0.131,0.503 m 24.0923,6.1934 c 0.441,1.004 1.374,1.255 2.158,0.976 -0.039,-0.355 0.443,-0.623 0.802,-0.662 -0.581,-0.572 -0.409,-1.355 -0.72,-1.84 -0.125,-0.194 -0.638,-0.269 -0.951,-0.369 -0.294,0.359 -0.735,0.498 -1.141,0.54 0.101,0.521 -0.246,1.131 -0.148,1.355 m -25.1914,3.63571 c -0.099,0.773 0.873,1.347 1.386,1.375 0.314,0.018 0.671,-0.065 0.879,-0.084 0.091,-0.528 0.753,-0.652 0.814,-1.329 0.015,-0.177 -0.396,-0.415 -0.237,-0.794 -0.41,-0.369 -0.92,-0.949 -1.021,-0.906 -0.849,0.366 -1.692,0.621 -1.838,1.349 -0.021,0.1 0.036,0.239 0.017,0.389 m 28.26809,-11.9521 c 0.049,0.416 0.299,0.819 0.569,0.947 0.589,0.282 1.274,0.545 1.886,0.037 0.211,-0.17 0.42,-0.705 0.483,-1.155 0.088,-0.637 -0.515,-1.066 -0.973,-1.497 -0.137,-0.132 -0.552,-0.002 -0.78,-0.416 -0.173,0.298 -0.654,0.958 -1.265,1.024 -0.002,0.378 0.042,0.738 0.08,1.06 m -11.33549,7.2119 c 0.256,0.403 0.877,0.92 1.203,0.913 0.672,-0.015 1.287,-0.081 2.18,-0.309 0.158,-0.041 0.093,-0.748 0.625,-0.931 -0.084,-0.596 0.596,-1.04 0.228,-1.343 -0.483,-0.396 -0.673,-0.972 -0.417,-1.378 -0.311,-0.007 -0.581,0.18 -0.706,-0.017 -0.237,-0.376 -0.63,-0.346 -0.982,-0.231 -0.414,0.136 -0.612,-0.425 -0.866,-0.38 -0.131,0.488 0,1.046 -0.418,1.52 -0.49,-0.105 -0.783,0.468 -1.04,1.05 -0.013,0.024 0.033,0.854 0.193,1.106 m 57.0088,202.217796 c 0.252,0.331 0.546,0.607 1.009,0.431 l 0.208,1.126 c 0.394,0.01 0.748,-0.694 1.182,-0.21 0.273,-0.174 0.359,-0.545 0.666,-0.59 0.197,-0.029 0.408,0.163 0.693,0.159 -0.016,-0.459 0.161,-1 0.706,-1.2 -0.18,-0.289 -0.253,-0.649 0.101,-0.918 0.033,-0.025 0.437,-0.198 0.303,-0.245 -0.595,-0.209 -0.833,-0.704 -1.275,-0.948 0.222,-0.319 -0.191,-0.503 -0.264,-0.507 -0.701,-0.044 -1.178,-0.264 -1.495,-0.649 -1.183,0.847 -1.851,2.068 -1.823,3.209 0.004,0.082 -0.02,0.331 -0.011,0.342 m -14.09911,-214.971706 c -0.001,-0.019 0.384,-0.007 0.629,-0.113 0.169,-0.075 0.398,-0.339 0.646,-0.127 0.142,0.122 0.308,0.346 0.571,0.274 0.307,-0.089 0.137,-0.538 0.282,-0.619 0.318,-0.177 0.66,-0.186 0.92,-0.213 -0.346,-0.667 0.154,-1.209 0.276,-1.564 0.221,-0.659 0.18,-1.111 -0.001,-1.506 -0.055,-0.115 -0.358,-0.154 -0.394,-0.331 -0.044,-0.226 -0.008,-0.556 -0.275,-0.679 -0.211,-0.098 -0.869,-0.46 -0.984,-0.418 -0.662,0.252 -1.292,-0.488 -1.448,0.112 -0.122,0.475 -0.615,1.746 -1.567,1.936 0.162,0.72 0.298,1.327 0.492,1.681 0.261,0.479 0.809,0.828 0.853,1.567 m 11.7568,125.299802 c 0.127,0.263 0.405,0.12 0.49,-0.05 0.369,0.258 0.391,0.72 0.592,1.091 0.085,-0.32 0.285,-0.618 0.563,-0.523 0.234,0.08 0.671,0.546 0.86,0.08 0.216,-0.539 0.97,-0.315 1.289,-0.806 0.144,-0.222 0.271,-0.499 0.617,-0.637 0.2,-0.079 0.063,-0.569 0.438,-0.671 -0.41,-0.292 -0.443,-0.799 -0.513,-1.279 0.182,-0.023 0.327,-0.29 0.014,-0.334 -0.287,-0.039 -0.696,-0.186 -0.615,-0.477 0.07,-0.244 0.029,-0.523 -0.287,-0.59 -0.374,-0.079 -1.074,-0.19 -1.045,-0.822 -0.392,0.279 -0.931,0.346 -1.082,0.82 -0.76,0.036 -1.152,0.701 -1.77,0.833 -0.757,1.019 -0.081,2.262 0.449,3.365 m -13.34709,19.341808 c 0.34,0.271 0.975,0.721 0.935,1.336 0.57,-0.056 0.823,0.288 1.261,0.359 0.156,-0.313 0.487,-0.398 0.59,0.091 0.228,-0.299 0.228,-0.862 0.681,-0.604 0.47,0.263 0.66,-0.495 1.161,-0.293 -0.012,0.26 0.396,0.337 0.254,-0.023 -0.324,-0.04 -0.438,-0.42 -0.371,-0.746 0.049,-0.256 0.412,-0.025 0.639,-0.112 -0.108,-0.144 -0.407,-0.398 -0.195,-0.401 0.65,-0.011 0.234,-0.52 -0.039,-0.625 -0.002,-0.592 0.751,-1.154 0.003,-1.57 -0.274,-0.154 -0.729,-0.091 -0.836,-0.43 -0.045,-0.147 -0.006,-0.349 -0.168,-0.476 -0.582,-0.46 -1.348,-0.47 -2.031,-0.432 -0.202,0.461 -0.966,-0.007 -1.042,0.376 -0.078,0.372 -0.498,0.465 -0.635,0.699 -0.108,0.184 -0.119,0.849 -0.153,1.108 -0.349,0.078 -0.385,0.417 -0.012,0.588 -0.103,0.388 -0.403,0.868 -0.042,1.155 m -55.9483,-139.3193 c 0.454,0.229 1.211,0.438 1.805,0.759 0.164,-0.441 0.578,-0.571 1.1,-0.46 0.2,0.044 0.773,-0.153 0.601,-0.595 0.397,-0.38 0.868,-0.866 0.831,-1.094 -0.145,-0.915 -0.354,-1.84 -0.592,-2.866 -0.45,-0.065 -1.064,-0.169 -1.148,-0.808 -0.327,-0.04 -0.675,-0.21 -0.815,-0.095 -0.77,0.642 -1.724,0.815 -2.469,1.064 -0.105,0.748 -0.047,1.449 -0.615,2.027 0.435,0.84 1.126,1.213 1.302,2.068 m 48.6817,-5.83891 c 0.685,0.473 1.741,0.666 2.436,0.928 0.075,-0.17 0.189,-0.584 0.643,-0.778 0.208,0.176 0.808,0.253 0.856,-0.348 0.022,-0.249 0.738,0.033 0.511,-0.373 -0.142,-0.254 -0.26,-0.6 -0.048,-0.837 0.155,-0.171 0.344,-0.43 0.178,-0.587 -0.36,-0.339 0.099,-0.855 0.391,-0.693 -0.096,-0.052 -1.529,-0.855 -1.297,-1.694 -0.35,-0.265 -1.022,-0.078 -1.185,-0.554 -0.067,-0.198 0.019,-0.451 -0.133,-0.609 -0.217,0.112 -0.266,0.387 -0.422,0.468 -0.322,0.167 -0.693,0.289 -1.063,0.256 -0.094,-0.222 -0.379,-0.486 -0.487,-0.292 -0.17,0.308 -0.242,0.694 -0.559,0.884 0.099,0.311 0.2,0.755 -0.171,1 -0.121,0.079 -0.496,0.218 -0.371,0.415 0.324,0.504 0.242,1.104 0.239,1.634 -0.004,0.337 0.705,0.617 0.482,1.18 m -8.90191,-5.25779 2.113,0.448 c 1.167,-0.673 1.94,-1.549 2.247,-2.652 0.127,-0.454 0.721,-0.892 -0.227,-1.436 -0.397,-0.226 -0.009,-1.142 -0.754,-1.308 -0.449,-0.1 -1.269,-0.039 -1.12,-0.807 -0.148,-0.079 -0.426,0.258 -0.617,0.407 l -0.652,-0.805 c -0.334,0.218 -0.01,0.623 -0.131,0.802 -0.3,0.453 -0.849,0.526 -1.129,0.846 -0.212,0.239 0.029,0.688 -0.147,0.812 -0.308,0.215 -0.761,0.253 -0.818,0.662 0.264,0.03 0.54,0.381 0.301,0.608 -0.121,0.118 -0.244,0.344 -0.121,0.61 0.294,0.636 1.058,0.852 1.111,1.591 0.003,0.059 -0.053,0.181 -0.056,0.222 m 28.8526,121.371096 c -0.18,0.049 -0.321,0.254 -0.029,0.38 0.16,-0.205 0.463,-0.402 0.719,-0.206 0.363,0.273 0.8,-0.196 0.893,-0.004 0.181,0.386 0.355,0.7 0.641,0.997 0.599,-0.823 1.944,-0.609 2.557,-0.31 -0.079,-0.491 -0.401,-0.601 -0.563,-0.801 0.498,-0.139 0.98,-0.011 1.536,0.137 -0.167,-0.167 -0.536,-0.476 -0.558,-0.55 -0.083,-0.299 -0.05,-0.74 0.377,-0.75 0.078,-0.306 0.185,-0.774 0.471,-0.926 -0.303,-0.105 -0.775,-0.483 -0.465,-0.793 0.217,-0.218 0.535,-0.602 0.308,-0.779 -0.283,-0.219 -0.669,-0.255 -0.911,-0.363 -0.392,-0.175 -0.683,-0.637 -0.364,-1.057 -0.244,-0.134 -0.571,0.281 -0.781,0.14 -0.256,-0.171 -0.583,-0.428 -0.531,-0.765 -0.145,0.295 -0.553,0.26 -0.734,0.023 -0.426,-0.558 -0.881,0.365 -1.212,0.47 -0.273,0.087 -0.519,-0.02 -0.772,0.036 0.094,0.422 -0.23,1.024 -0.82,0.885 -0.25,0.398 -0.184,0.949 -0.297,1.28 -0.103,0.299 0.208,0.442 0.252,0.642 0.108,0.495 -0.27,1.001 -0.061,1.437 0.136,0.28 0.47,0.436 0.391,0.723 -0.008,0.026 -0.031,0.092 -0.047,0.154 m 1.79831,-44.4688 c 0.687,-0.141 1.405,0.929 1.293,1.614 0.571,-0.398 0.676,0.254 0.84,0.286 0.561,0.107 0.992,0.447 1.496,0.246 0.227,0.259 0.39,0.631 0.837,0.759 0.405,-0.734 1.356,-1.348 1.859,-1.43 0.463,-0.079 0.929,-0.354 1.343,-0.122 0.165,0.093 0.609,-0.023 0.329,-0.279 -0.261,-0.238 -0.966,-0.093 -0.844,-0.385 0.275,-0.653 0.795,-1.18 1.301,-1.785 -0.384,-0.173 -0.584,-0.663 -0.446,-1.131 0.075,-0.249 -0.514,-0.307 -0.414,-0.669 0.116,-0.417 0.446,-0.668 0.813,-0.913 -0.379,-0.333 -0.756,0.219 -0.807,0.183 -0.687,-0.517 -1.159,-0.807 -1.477,-0.956 -0.881,-0.417 -1.606,-0.745996 -2.345,-0.775996 -0.25,-0.009 -0.283,-0.326 -0.214,-0.513 -0.213,0.018 -0.436,0.079 -0.445,0.13 -0.148,0.816996 -0.915,1.207996 -1.487,1.650996 -0.633,-0.637 -1.555,-0.458 -2.273,-0.473 -0.489,0.604 -0.87,1.149 -0.959,1.797 0.115,0.828 0.959,1.609 1.671,2.009 0.224,0.126 0.126,0.458 -0.071,0.757 m -57.50591,-69.532196 c 0.478,0.738 1.149,0.883 1.663,1.115 0.152,0.07 -0.026,0.439 0.119,0.618 0.151,-0.208 0.394,-0.329 0.605,-0.194 0.097,0.06 0.327,0.404 0.399,0.493 0.505,-0.226 0.799,0.454 1.16,0.393 0.289,-0.051 0.906,-0.69 1.113,-0.755 0.512,-0.167 0.878,0.147 1.244,0.413 0.26,0.189 0.335,-0.228 0.185,-0.426 -0.07,-0.088 -0.227,-0.337 0.066,-0.594 0.049,-0.042 0.594,-0.167 0.777,-0.222 -0.005,-0.243 -0.02,-0.549 0.313,-0.587 0.23,-0.027 0.526,-0.262 0.608,-0.551 0.083,-0.28 -0.208,-0.418 -0.323,-0.592 l 1.353,-1.002 c -0.515,-0.255 -0.092,-0.816 -0.385,-0.981 -0.182,-0.103 -0.665,-0.068 -0.729,-0.114 -0.226,-0.168 -0.546,-0.415 -0.304,-0.732 0.21,-0.271 0.618,-0.277 0.898,-0.576 -0.411,-0.222 -0.963,0.222 -1.302,0.073 -0.223,-0.099 -0.552,-0.773 -0.724,-0.896 -0.092,-0.066 -0.535,-0.054 -0.597,-0.127 -0.215,-0.248 -0.335,-0.638 -0.195,-1.02 -0.589,-0.251 -0.451,0.97 -1.16,0.65 -0.232,-0.107 -0.386,-0.362 -0.633,-0.271 -0.317,0.115 -0.601,0.415 -0.909,0.379 -0.551,-0.065 -0.69,-0.687 -1.231,-0.722 -0.152,0.35 0.02,0.706 0.236,0.982 -0.512,0.476 -1.202,-0.087 -1.59,0.379 -0.315,0.381 0.585,0.738 0.267,1.137 -0.465,0.579 -1.256,0.945 -1.851,1.389 0.936,0.446 1.394,1.321 1.076,2.041 -0.031,0.071 -0.212,0.201 -0.149,0.3 m 15.22071,14.457 c -0.162,0.535 0.344,0.748 0.626,0.944 0.24,0.169 0.53,0.369 0.856,0.202 0.229,-0.115 0.497,-0.223 0.721,-0.16 0.5,0.139 0.085,0.584 0.068,0.706 -0.064,0.486 -0.271,0.968 0.004,1.068 0.337,0.119 0.655,0.447 0.93,0.203 0.406,-0.36 0.573,-0.987 0.825,-1.23 0.222,-0.213 0.495,0.125 0.397,0.348 -0.198,0.45 -0.188,1.082 0.183,1.414 0.519,0.47 0.497,1.117 1.133,1.39 1.04,0.445 2.102,-0.261 2.879,-0.591 -0.081,-0.079 -0.36,-0.319 -0.177,-0.594 0.062,-0.094 0.381,-0.307 0.486,-0.392 0.249,0.244 0.28,0.621 0.493,0.89 0.363,-0.231 0.11,-0.63 -0.008,-0.757 -0.673,-0.728 -0.169,-1.82 0.272,-2.382 -0.582,-0.206 -0.525,-0.662 -0.438,-1.003 0.072,-0.281 0.22,-0.57 0.458,-0.686 -0.558,-0.701 -1.296,-1.25 -2.05,-1.796 0.444,-0.616 0.631,-1.277 0.787,-1.877 -0.41,-0.278 -0.26,-0.913 -0.555,-1.038 -0.491,-0.211 -0.918,-0.58 -1.096,-0.579 -0.62,0.002 -1.284,0.038 -1.294,0.704 -0.007,0.709 -0.605,1.168 -1.185,1.318 -0.521,0.129 -0.453,0.816 -0.333,1.213 0.161,0.532 0.808,0.823 0.927,1.086 0.168,0.378 -0.283,0.631 -0.596,0.546 -0.313,-0.087 -0.656,-0.143 -0.99,-0.062 -0.229,0.054 -0.41,0.414 -0.762,0.382 -0.089,-0.58 -0.742,-0.885 -1.284,-0.884 -0.695,0 -0.955,0.664 -1.424,1.09 -0.121,0.108 0.203,0.343 0.147,0.527 m 57.7984,88.535196 c 0.856,0.715 1.849,1.373 2.655,2.499 0.172,0.241 0.616,-0.316 1.005,-0.352 0.33,-0.03 0.72,0.236 1.128,0.09 0.101,0.118 0.278,0.473 0.383,0.277 0.074,-0.138 -0.013,-0.566 0.302,-0.404 0.278,0.143 0.721,0.26 0.985,-0.079 0.167,0.066 0.599,-0.148 0.279,-0.406 -0.145,-0.117 -0.028,-0.36 0.163,-0.446 0.816,-0.368 1.866,-0.683 2.908,-0.297 -0.43,-0.428 -0.717,-0.681 -0.479,-0.935 0.144,-0.151 0.343,-0.372 0.239,-0.645 -0.123,0.205 -0.41,0.338 -0.533,0.117 -0.227,-0.407 -0.161,-0.967 0.003,-1.48 0.026,-0.084 0.403,-0.258 0.231,-0.328 -0.356,-0.142 -0.403,-0.477 -0.495,-0.734 -0.169,-0.473 0.549,-0.647 0.329,-0.86 -0.346,-0.341 -0.905,-0.192 -1.073,-0.531 -0.283,-0.569 0.23,-0.934 0.461,-1.392 -0.367,-0.011 -0.67,-0.364 -0.872,-0.613 -0.215,-0.258 -0.27,0.126 -0.275,0.276 -0.014,0.43 -0.518,0.275 -0.93,0.295 -0.475,0.019 -0.749,-0.972 -0.952,-0.789 -0.747,0.678 -1.951,0.047 -2.398,-0.245 -0.478,0.377 -1.072,0.522 -1.263,0.964 -0.243,0.006 -0.442,-0.057 -0.546,-0.117 -0.071,0.585 -0.884,0.632 -0.915,1.353 -0.016,0.383 0.27,0.908 -0.126,1.131 -0.483,0.269 -0.992,0.594 -1.194,1.009 -0.187,0.383 0.109,1.064 0.642,1.065 0.201,0.52 -0.01,1.287 0.338,1.577 m -4.0586,19.248 c 0.642,0.153 1.657,0.566 1.975,1.379 0.22,-0.431 0.605,-0.45 0.907,-0.215 0.404,0.318 1.407,-0.162 1.504,0.761 0.301,-0.019 0.443,-0.601 0.72,-0.433 -0.07,0.185 0.201,0.434 0.329,0.117 0.074,-0.182 0.249,-0.505 0.597,-0.493 0.305,0.009 0.617,0.204 0.725,0.442 0.236,-0.075 0.496,-0.319 0.143,-0.471 0.222,-0.433 0.032,-1.071 0.516,-1.283 0.475,-0.209 0.618,0.432 1.099,0.266 -0.179,-0.248 -0.551,-0.477 -0.374,-0.693 0.24,-0.296 0.245,-0.791 0.541,-0.948 0.224,-0.119 0.748,0.337 0.848,-0.093 -0.221,-0.087 -0.531,-0.3 -0.341,-0.519 0.079,-0.089 0.383,-0.309 0.494,-0.398 -0.115,-0.433 -0.666,-0.169 -0.78,-0.499 -0.116,-0.332 0.096,-0.828 0.509,-0.717 l -0.583,-0.721 c 0.13,-0.303 0.218,-0.633 0.43,-0.884 0.264,-0.311 -0.274,-0.39 -0.396,-0.215 -0.745,-0.355 -1.515,-0.904 -1.863,-1.634 -0.119,-0.254 0.049,-0.517 -0.002,-0.702 -0.269,0.198 -0.507,0.571 -0.765,0.479 -0.236,-0.082 -0.275,-0.34 -0.368,-0.507 -0.335,0.09 -0.651,0.002 -1.001,0.101 -0.092,-0.217 0.039,-0.545 -0.244,-0.704 -0.355,0.621 -1.033,0.277 -1.586,0.827 -0.092,0.094 -0.4,-0.597 -0.53,-0.029 -0.04,0.179 0.087,0.718 -0.331,0.771 -0.366,0.047 -0.878,-0.089 -1.162,-0.466 0.235,0.817 -0.063,1.428 -0.676,1.611 -0.349,0.104 -0.682,-0.236 -0.821,-0.266 -0.114,0.218 -0.195,0.487 -0.044,0.587 0.217,0.143 0.488,0.216 0.623,0.44 -0.24,0.259 -0.569,0.35 -0.946,0.648 0.374,-0.106 0.793,0.052 0.673,0.393 -0.126,0.364 -0.355,0.703 -0.537,0.855 0.472,0.709 0.581,1.674 0.831,2.435 0.048,0.149 0.251,0.376 -0.051,0.437 l -0.063,0.341 z m 1.3916,37.7919998 c 0.075,0.252 0.771,0.217 0.59,0.616 0.751,-0.179 1.707,0.575 2.297,1.366 0.011,-0.178 -0.057,-0.438 0.201,-0.472 0.182,-0.028 0.547,-0.029 0.555,0.314 0.006,0.317 -0.179,0.824 0.466,0.915 -0.194,-0.756 0.556,-1.551 1.329,-1.424 0.687,0.112 0.778,0.789 1.146,1.292 0.14,-0.489 -0.201,-0.971 -0.175,-1.222 0.039,-0.378 0.175,-0.832 0.424,-0.997 0.16,0.139 0.542,0.334 0.514,0.012 -0.018,-0.203 -0.1,-0.475 0.055,-0.577 0.227,-0.144 0.505,-0.163 0.642,-0.371 0.097,-0.148 0,-0.445 0.387,-0.595 0.018,-0.006 0.843,-0.302 0.3,-0.409 -0.238,-0.047 -0.511,-0.271 -0.393,-0.506 0.225,-0.451 0.704,-0.559 1.108,-0.81 -0.249,-0.34 -0.754,-0.063 -0.866,-0.455 -0.095,-0.346 -0.228,-0.705 -0.07,-1.044 0.23,-0.496 0.795,-0.173 1.078,-0.586 -0.925,0.213 -2.049,-0.8809998 -2.232,-2.0409998 -0.502,0.295 -0.682,0.072 -0.705,-0.04 -0.095,-0.438 -0.489,-0.638 -0.789,-0.415 -0.306,-0.165 -0.679,-0.269 -1.013,-0.144 l -0.405,-0.501 c -0.15,0.315 -0.586,0.26 -0.715,0.089 -0.34,-0.452 -0.716,0.262 -0.732,0.263 -1.139,0.121 -1.842,0.888 -2.693,0.806 -0.057,0.297 -0.111,0.627 -0.392,0.888 -0.162,-0.072 -0.78,-0.171 -0.565,0.228 0.414,-0.086 0.346,0.3759998 0.215,0.4919998 -0.543,0.482 -0.308,1.318 -0.679,1.74 -0.129,0.149 -0.586,0.11 -0.367,0.32 0.276,0.267 0.728,0.604 0.66,1.129 -0.083,0.634 0.386,1.136 0.835,1.731 0.04,0.052 -0.048,0.282 -0.011,0.408 M -163.4066,-160.14007 c -0.033,0.088 -0.063,0.446 0.271,0.302 0.316,-0.136 0.647,0.141 0.782,0.472 0.679,-0.096 1.272,0.418 1.381,1.131 l 1.167,-0.541 c 0.153,0.191 0.409,0.497 0.395,0.49 0.658,0.345 1.675,0.22 1.931,-0.752 0.522,0.164 1.361,0.197 2.062,0.139 0.211,-0.018 0.428,-0.855 0.214,-1.372 l 1.251,-1.011 c -0.3,-0.623 -0.041,-1.453 0.547,-1.976 l -0.607,-0.605 c 0.125,-0.39 0.361,-0.739 0.686,-1.041 -0.241,-0.236 -0.737,0.079 -0.791,-0.236 -0.065,-0.367 -0.068,-0.714 0.075,-0.936 -0.468,-0.624 -0.511,-1.428 -1.246,-1.834 0.194,-0.491 -0.164,-1.2 -0.813,-1.263 -0.538,-0.054 -0.796,0.532 -1.172,0.618 -0.374,0.089 -0.727,-0.321 -1.094,-0.354 -0.143,-0.011 -0.579,0.355 -0.673,0.323 -0.541,-0.186 -0.305,-0.816 -0.462,-1.165 -0.382,-0.011 -0.495,0.337 -0.462,0.426 0.158,0.435 0.17,0.903 -0.194,1.037 -0.401,0.148 -0.828,-0.07 -1.273,0.038 -0.213,-0.3 -0.304,-0.718 -0.581,-0.993 -0.416,0.143 -0.466,0.556 -0.414,0.912 0.07,0.475 -0.506,0.718 -0.799,1.013 -0.349,0.356 -0.573,0.865 -1.052,0.972 -0.056,0.787 -0.178,1.522 -0.036,2.286 -0.401,0.127 -0.492,0.515 -0.394,0.821 0.039,0.12 0.549,0.476 0.781,0.683 -0.468,0.412 -0.45,1.449 0.106,1.566 0.561,0.115 0.532,0.549 0.414,0.85 m 48.5092,67.896492 c -0.055,-0.075 0.124,0.299 -0.39,0.401 0.632,0.295 0.825,1.208 1.246,1.381 0.764,0.314 1.546,0.45 2.319,0.694 0.315,0.095 0.476,0.42 0.679,0.638 0.111,-0.091 0.396,-0.389 0.485,-0.393 0.386,-0.022 0.913,0.182 1.062,0.089 0.733,-0.465 1.51,-0.58 2.059,-0.582 0.561,-10e-4 0.782,0.442 1.084,0.664 0.228,0.168 0.64,-0.324 0.622,-0.571 -0.519,-0.075 -1.113,-0.338 -1.173,-0.913 -0.024,-0.226 0.271,-0.499 0.591,-0.364 0.07,0.03 0.458,0.233 0.413,-0.104 -0.031,-0.231 -0.119,-0.629 0.286,-0.846 0.181,-0.098 -0.01,-0.757 0.332,-1.088 0.241,-0.232 0.965,-0.924 1.247,-1.196 -0.465,-0.185 -0.944,-0.46 -1.15,-0.946 -0.231,-0.544 0.329,-1.028 0.763,-1.139 -0.344,-0.163 -0.678,-0.207 -0.706,-0.335 -0.223,-1.031 -1.031,-1.662 -1.594,-2.601 -0.14,-0.233 0.357,-0.742002 0.106,-0.717002 -0.736,0.077 -1.43,0.163 -2.07,0.643002 -0.314,0.237 -0.204,-0.387 -0.288,-0.694002 -0.019,-0.066 0.186,-0.416 0.015,-0.406 -0.48,0.025 -0.614,-0.399 -1.048,-0.433 -0.143,0.258 -0.226,0.829 -0.815,0.682 -0.336,-0.084 -0.816,-0.003 -1.143,-0.044 -0.371,-0.049 -0.34,-0.622 -0.678,-0.737 l 0.004,1.452002 c -0.432,0.025 -0.585,-0.622002 -0.783,-0.918002 l -0.315,1.081002 c 0.545,0.318 -0.141,0.592 -0.244,0.839 -0.269,0.645 -0.933,0.058 -1.381,0.434 0.223,0.425 0.469,1.118 0.046,1.412 -0.154,0.109 -0.552,0.068 -0.361,0.31 0.073,0.095 0.472,0.394 0.192,0.49 -0.135,0.048 -0.528,-0.079 -0.661,-0.043 -0.168,0.049 -0.131,0.349 -0.059,0.45 0.306,0.426 0.548,0.95 0.571,1.503 0.02,0.471 0.074,1.013 0.737,1.907 m -9.7202,118.553704 c 0.058,0.503 0.577,-0.248 0.833,-0.265 0.486,-0.03 1.003,0.642 0.995,1.187 0.35,-0.109 0.619,0.322 0.586,0.701 -0.041,0.498 0.514,-0.136 0.647,-0.36 0.086,-0.154 0.124,-0.469 0.414,-0.563 0.423,-0.138 0.553,0.391 0.805,0.656 0.224,-0.228 0.232,-0.735 0.465,-0.695 0.874,0.15 1.638,0.792 1.97,1.754 0.291,-0.128 0.451,-0.341 0.324,-0.658 -0.111,-0.277 -0.775,-0.552 -0.488,-1.064 0.185,-0.334 0.448,-0.944 1.031,-0.795 0.182,0.046 0.458,0.254 0.526,0.118 0.334,-0.654 0.938,-1.302 1.024,-2.015 0.424,0.082 0.708,0.469 1.168,0.532 0.018,-0.344 -0.476,-0.864 -0.461,-1.086 0.041,-0.63 0.191,-1.36 1.042,-1.689 -0.406,-0.065 -0.904,0.062 -0.98,-0.237 -0.086,-0.34 -0.079,-0.696 0.119,-1.005 -0.437,-0.215 -0.375,-0.729 -0.096,-1.051 0.196,-0.23 0.471,-0.55 0.33,-0.849 -0.087,-0.185 -0.398,0.262 -0.637,0.015 -0.529,-0.546 -1.5,-0.582 -2.055,-1.082 0.07,-0.3 0.145,-0.576 -0.103,-0.697 -0.577,-0.279 -1.191,0.426 -1.521,-0.026 -0.492,-0.678 -0.396,-1.488 -0.465,-2.247 -0.438,0.052 -0.308,0.692 -0.478,0.75 -0.809,0.278 -1.309,0.745 -1.963,0.862 -0.454,0.082 0.099,-0.806 -0.264,-1.012 -0.404,-0.23 -0.208,0.428 -0.205,0.452 0.061,0.481 -0.063,0.893 -0.433,0.922 -0.368,0.026 -0.349,-0.711 -0.648,-0.804 -0.334,-0.103 -0.144,0.238 -0.127,0.265 0.408,0.669 0.119,1.702 -0.679,1.623 -0.237,-0.023 -0.46,-0.118 -0.708,-0.194 -0.246,0.297 0.07,0.729 -0.115,1.016 -0.26,0.402 -0.442,-0.498 -0.771,-0.008 0.322,0.26 0.593,0.644 0.349,1.032 -0.087,0.141 -0.626,0.506 -0.766,0.621 0.607,0.325 0.064,1.005 0.501,1.409 -0.295,0.257 -0.621,0.588 -1.189,0.684 0.493,0.332 1.148,0.387 1.388,0.962 0.128,0.303 -0.556,0.289 -0.626,0.82 0.697,-0.29 1.499,0.35 1.723,1.149 0.126,0.451 -0.504,0.515 -0.462,0.872 m -14.3012,-194.637706 c 0.459,0.343 0.958,0.734 1.345,1.338 0.224,0.35 0.508,1.008 0.928,1.16 0.156,0.055 0.312,-0.168 0.455,-0.275 0.208,0.601 0.937,0.319 1.159,0.45 0.72,0.426 1.266,0.904 1.65,1.498 0.23,-0.484 0.647,-0.502 0.974,-0.618 0.046,-0.273 0.028,-0.515 0.007,-0.502 0.638,-0.405 1.333,-0.403 1.613,0.178 0.478,-0.22 -0.136,-0.557 -0.283,-0.768 0.323,-0.283 0.857,-0.186 1.054,-0.525 0.157,-0.272 0.523,-0.75 0.997,-0.538 0.493,0.22 -0.011,-0.346 -0.073,-0.48 -0.107,-0.224 -0.236,-0.485 -0.086,-0.667 0.558,-0.679 1.593,-0.467 2.371,-0.13 -0.501,-0.699 -1.353,-0.451 -1.615,-1.092 -0.48,-1.176 -0.383,-2.571 1.183,-3.431 -0.386,-0.314 -0.775,-0.241 -0.969,-0.085 -0.305,0.247 -0.929,0.393 -1.015,0.017 -0.067,-0.285 -0.026,-0.628 0.097,-0.849 0.145,-0.255 0.942,-0.825 0.973,-1.053 0.063,-0.48 -0.34,0.047 -0.473,0.106 -0.373,0.161 -0.821,0.184 -1.145,-0.016 0.026,-0.41 0.567,-0.596 0.408,-1.077 -0.326,-0.053 -0.733,0.693 -1.065,0.467 -0.448,-0.305 -0.711,-0.783 -1,-1.119 -0.302,-0.349 -0.083,-0.894 -0.315,-1.32 -0.561,0.233 -0.717,1.041 -1.089,1.285 -0.415,0.275 -0.6,-0.307 -0.759,-0.423 -0.45,-0.326 -0.806,0.237 -1.325,-0.09 -0.263,0.364 -0.392,0.851 -0.721,1.146 -0.535,0.484 -0.807,-0.307 -1.037,-0.611 -0.272,0.17 -0.422,0.439 -0.403,0.68 0.015,0.19 0.392,0.348 0.266,0.609 -0.215,0.44 -0.907,0.549 -1.346,0.28 -0.203,-0.126 -0.307,0.183 -0.427,0.523 -0.578,1.679 -1.009,3.598 -0.304,5.576 0.02,0.054 -0.073,0.323 -0.03,0.356 m 19.33689,2.85161 c -0.042,0.339 0.461,0.365 0.521,-0.052 0.02,-0.131 -0.464,-0.571 0.068,-0.925 0.495,0.634 0.974,1.43 1.782,2.027 0.156,0.115 0.904,0.189 1.046,0.661 0.099,0.336 0.223,0.685 0.458,0.985 0.204,-0.334 -0.145,-0.853 0.367,-1.066 0.471,-0.2 0.946,0.342 1.639,0.277 0.028,0.197 0.291,0.342 0.345,0.031 0.033,-0.176 0.017,-0.424 0.249,-0.422 0.309,0.001 0.759,-0.078 1.049,0.284 0.238,0.298 0.217,-0.345 0.33,-0.527 0.22,-0.347 0.682,0.237 0.926,0.216 0.044,-0.343 -0.178,-0.657 -0.069,-0.823 0.257,-0.387 0.618,-0.636 1.038,-0.505 l -0.581,-0.718 c 0.634,-0.454 1.689,-0.743 2.334,-1.213 -0.519,-0.261 -1.091,-0.591 -0.739,-1.156 0.116,-0.186 0.064,-0.616 0.461,-0.649 0.273,-0.023 0.915,-0.101 0.901,-0.555 -0.506,0.317 -1.434,0.513 -1.673,-0.134 -0.077,-0.209 -0.366,-0.653 0.065,-0.753 0.321,-0.073 0.65,-0.186 1.118,-0.117 -0.336,-0.396 -1.32,-0.554 -1.533,-1.201 -0.191,-0.572 0.457,-1.116 0.127,-1.76 -0.141,-0.273 -0.567,0.245 -0.768,0.344 -0.331,0.167 -0.555,-0.219 -0.445,-0.478 0.099,-0.234 0.268,-0.426 0.432,-0.596 -0.561,-0.36 -1.388,-0.749 -2.02,-0.241 -0.066,-0.082 -0.365,-0.357 -0.398,-0.492 -0.062,-0.273 0.244,-0.766 -0.113,-0.863 -0.401,-0.109 -0.407,0.581 -0.551,0.683 -0.364,0.26 -0.718,0.709 -1.14,0.442 -0.398,-0.252 0.33,-0.795 -0.172,-1.18 -0.417,0.354 -0.314,1.053 -0.792,1.197 -0.468,0.14 -0.223,-0.636 -0.396,-0.727 -0.459,-0.246 -0.825,-0.028 -1.095,0.264 0.266,0.245 0.202,0.834 -0.107,1.229 -0.211,0.268 -0.355,0.99 -0.943,0.857 -0.065,-0.284 -0.302,-0.311 -0.44,-0.01 -0.294,-0.08 -1.036,-0.636 -0.96,0.025 0.021,0.201 0.51,0.63 0.618,0.765 -0.221,0.469 -0.44,1.15 -1.087,1.175 0.489,0.292 0.453,1.054 0.181,1.229 -0.209,0.135 -0.37,0.256 -0.405,0.284 0.187,0.696 0.222,1.69 0.847,2.28 -0.233,0.292 -0.069,0.679 -0.46,0.75 -0.129,0.021 -0.536,-0.113 -0.427,0.134 0.141,0.32 0.455,0.675 0.412,1.024 M -135.5414,-6.7113742 c -0.034,0.241 0.215,0.214 0.386,0.106 0.416,-0.263 0.49,0.382 0.685,0.612 0.112,0.133 0.706,-0.05 0.61,0.374 -0.043,0.194 -0.179,0.469 0.008,0.652 0.342,-0.361 0.904,-0.469 1.474,-0.283 0.469,0.153 -0.021,1.006 0.623,1.325 0.203,-0.298 -0.026,-0.673 -0.04,-1.005 0.424,-0.065 1.182,0.381 0.972,0.945 0.105,0.127 0.27,0.478 0.377,0.31 0.252,-0.403 -0.033,-0.94 0.122,-1.112 0.325,-0.362 0.892,-0.318 0.927,0.095 0.019,0.232 0.158,0.791 0.546,0.632 -0.085,-0.459 0.088,-1.129 0.64,-0.963 0.741,0.22 1.039,-0.612 1.633,-0.734 -0.146,-0.1 -0.273,-0.355 -0.103,-0.529 0.293,-0.297 0.882,-1.011 1.279,-0.359 0.214,0.351 0.597,0.506 0.839,0.843 0.131,0.18 0.473,-0.123 0.16,-0.356 -0.326,-0.245 -0.825,-0.652 -1.214,-1.26 -0.339,-0.528 0.548,-0.898 1.125,-0.975 0.255,-0.034 0.503,-0.315 0.154,-0.445 -0.179,-0.063 -0.734,-0.205 -0.911,-0.278 -0.324,-0.134 -0.021,-0.47 0.088,-0.634 0.166,-0.249 0.448,-0.3489998 0.736,-0.2529998 0.159,0.057 0.396,0.1879998 0.54,-0.218 0.094,-0.269 -0.473,-0.31 -0.613,-0.324 -0.551,-0.053 -0.285,-0.304 -0.123,-0.398 0.249,-0.144 0.691,-0.058 0.733,-0.371 -0.509,-0.024 -0.918,-0.216 -1.354,-0.329 -0.339,-0.085 -0.152,-0.475 -0.114,-0.777 0.154,-0.062 0.536,-0.32 0.122,-0.484 -0.281,-0.112 -0.769,0.043 -0.869,-0.354 -0.136,-0.537 0.55,-0.721 0.888,-1.032 -0.178,-0.549 -0.509,0.115 -0.602,0.104 -0.396,-0.048 -0.952,0.309 -0.903,-0.123 0.059,-0.537 -0.363,-0.84 -0.711,-1.028 0.035,-0.28 0.124,-0.878004 -0.096,-0.742 -0.674,0.415 -1.366,0.344 -1.9,0.349 -0.458,0.008 -1.083,0.165 -1.54,0.015 -0.165,-0.055 -0.58,-0.717004 -0.741,-0.916004 l -0.122,0.824004 c -0.514,-0.445004 -0.955,0.492 -1.3,0.368 -0.211,-0.076 -0.452,-0.558 -0.528,-0.653 -0.293,0.058 -0.153,0.27 -0.1,0.386 0.193,0.427 -0.092,0.903 -0.459,1.059 -0.248,0.107 -0.738,-0.19 -0.871,0.187 -0.072,0.195 0.144,0.678 -0.176,0.747 -0.213,0.046 -0.84,-0.075 -1.06,-0.095 0.097,0.39 0.561,0.122 0.566,0.17 0.108,0.834 -0.379,1.436 -0.95,1.465 0.531,0.351 0.48,0.812 0.481,1.198 -0.323,0.18 -0.113,0.649 -0.446,0.8 -0.293,0.13 -0.606,0.2239998 -0.822,0.4409998 0.099,0.28 0.374,0.318 0.614,0.314 0.289,-0.002 0.563,-0.181 0.833,-0.063 0.783,0.339 0.178,1.095 0.139,1.465 -0.063,0.594 0.435,0.822 0.368,1.307 M -157.70691,-148.13907 c -0.46,0.079 -0.145,0.495 0.12,0.625 0.065,-0.052 0.419,-0.426 0.529,-0.428 0.768,-0.006 0.967,1.011 1.016,1.538 0.267,-0.278 0.286,-0.631 0.484,-0.62 0.637,0.038 1.434,0.467 1.339,1.055 -0.038,0.239 -0.253,0.762 0.046,0.694 0.379,-0.089 0.181,-0.714 0.356,-0.971 0.2,-0.297 0.493,-0.617 0.65,-0.583 0.681,0.141 1.086,0.493 1.364,0.851 0.193,0.251 0.464,-0.016 0.442,-0.192 -0.018,-0.177 -0.09,-0.517 0.306,-0.541 0.212,-0.012 0.364,0.382 0.578,0.627 0.532,-0.17 -0.198,-0.512 -0.172,-0.674 0.144,-0.916 1.056,-1.193 1.742,-1.244 0.382,-0.028 0.694,0.277 1.081,0.163 -0.206,-0.275 -0.6,-0.532 -0.461,-0.81 0.203,-0.404 0.735,-0.037 1.11,0.139 0.56,-0.506 0.827,-1.185 1.558,-1.404 -0.069,-0.281 0.111,-0.768 0.408,-0.646 0.007,0.46 0.194,0.965 0.657,1.112 0.018,-0.454 0.085,-1.006 0.242,-1.456 0.075,-0.215 0.853,-0.689 1.087,-0.879 -0.136,-0.408 0.138,-0.834 0.08,-1.232 -0.277,-0.104 -0.721,-0.34 -0.442,-0.604 0.414,-0.391 0.954,-0.866 1.542,-0.767 0.092,-0.174 0.276,-0.338 0.244,-0.476 -0.058,-0.249 -0.406,-0.52 -0.624,-0.304 -0.485,0.478 -1.036,0.886 -1.713,0.774 -0.337,-0.057 0.23,-0.82 -0.085,-1.229 -0.363,0.053 -1.15,0.287 -1.008,-0.479 0.053,-0.3 -0.349,-0.348 -0.53,-0.191 -0.308,0.266 -0.703,0.142 -0.957,-0.016 -0.26,-0.164 -0.512,-0.599 -0.862,-0.495 -0.61,0.179 -1.091,0.785 -1.699,0.792 -0.111,-0.312 -0.393,-0.442 -0.602,-0.448 -0.664,-0.022 -1.424,0.026 -1.783,-0.361 -0.488,-0.525 -1.209,-0.737 -1.313,-1.491 -0.262,0.248 -0.33,1.12 -1.003,0.691 -0.152,-0.098 -0.393,0.031 -0.662,-0.025 -0.311,0.399 -0.914,0.746 -1.458,0.445 -0.212,-0.117 -0.42,-1.042 -0.639,-0.554 -0.132,0.291 0.083,0.544 0.277,0.851 -0.594,0.204 -1.414,-0.265 -1.94,0.169 -0.444,0.365 -0.949,0.665 -1.594,0.776 0.363,0.226 0.493,0.603 0.324,0.895 -0.182,0.322 -0.25,0.759 -0.551,0.887 0.303,0.555 0.369,1.329 0.918,1.966 0.245,0.281 -0.626,0.583 -0.276,0.721 0.949,0.379 1.292,1.455 1.245,2.158 -0.033,0.457 0.705,0.488 0.878,0.748 0.154,0.229 -0.024,0.402 -0.249,0.443 m 23.851,70.909196 c 0.217,0.247 0.789,0.186 0.852,0.519 0.091,0.48 0.329,1.245 0.681,1.158 0.651,-0.159 1.359,0.04 1.726,0.5 0.161,0.198 0.409,0.406 0.36,0.864 -0.012,0.099 -0.029,0.645 0.368,0.503 0.436,-0.153 -0.367,-0.579 -0.056,-0.711 0.31,-0.129 0.59,-0.428 0.877,-0.248 0.108,0.067 0.317,0.393 0.402,0.498 0.197,-0.062 0.393,-0.23 0.642,-0.142 0.111,-0.191 -0.033,-0.54 0.278,-0.601 0.344,-0.07 0.666,0.096 0.828,0.413 0.114,0.218 0.145,0.544 0.328,0.562 0.454,0.048 -0.002,-0.322 -0.015,-0.403 -0.043,-0.288 -0.116,-0.753 0.353,-0.775 0.779,-0.039 1.491,0.419 2.487,0.108 0.02,-0.307 -1.009,-0.836 -0.692,-1.017 0.998,-0.573 1.723,-1.331 2.225,-1.414 0.796,-0.134 1.248,0.426 1.684,0.394 0.229,-0.018 0.197,-0.404 -0.107,-0.465 -0.452,-0.095 -1.304,-0.055 -1.577,-0.627 -0.195,-0.406 0.52,-0.657 0.779,-0.969 0.248,-0.302 -0.152,-0.482 -0.096,-0.789 0.428,-0.085 0.925,0.037 1.368,0.09 0.148,0.018 0.285,-0.211 0.128,-0.292 -0.878,-0.451 -1.429,-1.119 -1.294,-1.914 0.036,-0.216 0.135,-0.42 0.329,-0.54 0.561,-0.349 1.275,0.013 1.756,-0.434 -0.244,-0.29 -0.691,-0.31 -0.944,-0.152 -0.415,0.257 -1.036,0.491 -1.444,0.175 -0.191,-0.146 -0.438,-1.245 -0.359,-1.464 0.172,-0.477 0.799,-0.799 0.901,-1.193 -0.714,-0.14 -1.448,0.485 -1.924,0.116 -0.414,-0.323 -1.164,-0.464 -1.478,-1.203 -0.172,-0.403 -0.698,-0.725 -0.584,-1.286 -0.475,0.689 -1.492,0.828 -2.201,0.692 -0.139,-0.025 -0.431,-0.312 -0.199,-0.622 0.087,-0.116 -0.063,-0.559 -0.279,-0.236 -0.265,0.392 -0.877,0.964 -1.337,0.378 -0.069,-0.088 -0.332,-0.317 -0.433,-0.412 -0.095,0.624 -0.806,0.505 -1.068,0.795 0.154,0.455 -0.183,1.025 -0.495,0.88 -0.425,-0.196 -0.776,0.06 -1.18,-0.015 0.095,0.277 0.086,0.72 -0.34,0.803 -0.075,0.014 -0.512,-0.042 -0.686,-0.055 -0.193,0.305 -0.006,0.843 -0.104,0.94 -0.667,0.675 -0.962,1.69 -1.694,2.201 0.051,0.29 0.389,1.35 0.324,1.762 -0.031,0.203 -0.627,0.719 -0.257,0.873 0.165,0.068 0.458,-0.135 0.539,0.095 0.209,0.594 -0.32,1.179 0.063,1.736 0.175,0.256 0.747,0.403 0.565,0.924 m 31.67491,-48.862306 c 0.245,-0.24 -0.235,-0.253 -0.384,-0.254 -0.381,-0.002 -0.836,0.396 -0.991,0.225 -0.617,-0.683 -1.139,-1.31 -1.531,-2.023 0.211,-0.066 0.41,-0.254 0.18,-0.513 -0.171,-0.196 0.235,-0.484 0.039,-0.759 -0.1,-0.142 -0.416,0.22 -0.605,0.368 -0.477,-0.218 0.058,-0.652 -0.001,-0.778 -0.618,-1.352 -1.705,-1.228 -2.29,-1.512 -0.457,-0.895 -0.184,-1.602 0.365,-2.131 0.084,-0.079 0.317,-0.336 0.397,-0.417 l -0.384,-0.475 c -0.567,0.74 -1.537,0.737 -2.089,0.271 -0.194,-0.161 -0.42,-0.358 -0.459,-0.579 -0.059,-0.316 -0.162,-0.715 -0.022,-0.994 0.176,-0.352 0.807,-0.492 0.734,-0.95 -0.044,-0.28 -0.463,-0.302 -0.612,-0.101 -0.124,0.171 -0.236,0.371 -0.34,0.415 -0.414,0.168 -0.773,-0.077 -0.902,-0.397 -0.095,-0.234 0.086,-0.438 0.342,-0.547 -0.375,-0.652 -0.947,0.224 -1.234,0.304 -0.276,0.078 -0.82,0.053 -0.888,0.011 -0.384,-0.232 -0.932,-0.497 -0.789,-0.995 0.408,-0.068 0.461,-0.619 0.259,-0.815 -0.135,-0.13 -0.48,-0.459 -0.665,-0.189 -0.296,0.434 -0.091,1.01 -0.629,1.131 -0.422,0.095 -1.017,0.428 -1.218,0.145 -0.183,-0.254 0.055,-0.464 0.105,-0.725 -0.541,0.082 -0.827,-0.6 -0.566,-1.073 -0.32,-0.144 -1.27,-0.426 -1.375,-0.598 -0.386,-0.633 0.621,-0.793 0.51,-1.366 -0.377,-0.06 -0.816,0.41 -1.341,0.467 -0.257,0.03 -0.232,0.582 -0.116,0.909 0.127,0.357 0.616,0.451 0.823,0.739 -0.305,0.44 -0.271,1.157 -0.86,1.233 -0.199,0.684 -1.015,0.874 -1.546,1.304 -0.105,0.087 -0.34,-0.197 -0.335,-0.397 0.021,-0.684 0.75,-1.203 1.403,-1.342 -0.296,-0.086 -0.615,-0.197 -0.757,-0.537 l 1.008,-0.593 c -0.361,-0.203 -0.753,-0.419 -1.2,-0.555 -0.287,-0.086 0.109,-0.48 0.115,-0.692 -0.622,-0.183 -0.999,-0.694 -1.241,-0.825 -1.015,-0.536 -1.525,-1.577 -2.467,-2.54 -0.196,-0.203 0.334,-0.528 0.61,-0.658 0.318,-0.148 1.015,-0.821 1.28,-1.035 0.128,0.207 0.296,0.511 0.617,0.419 0.385,-0.11 0.58,-0.379 0.441,-0.7 0.413,-0.352 0.628,-0.859 0.476,-1.366 -0.072,-0.24 -0.505,-0.484 -0.409,-0.772 0.119,-0.355 0.532,-0.558 0.842,-0.816 -0.527,-0.628 -0.544,-1.411 -0.379,-1.981 0.086,-0.29 -0.643,-0.262 -1.03,-0.338 -0.084,-0.458 -0.215,-1.021 -0.066,-1.527 0.117,-0.397 0.394,-0.752 0.436,-1.242 -0.374,-0.094 -0.875,0.684 -1.203,0.387 -0.388,-0.355 -0.871,-0.761 -0.921,-1.253 0.364,-0.086 0.364,-0.482 0.183,-0.64 -0.317,0.334 -0.953,0.538 -1.214,0.211 -0.362,-0.458 -1.067,-0.503 -1.458,-0.342 -0.697,0.292 -1.516,0.596 -2.14,0.175 0.068,-0.447 0.001,-0.907 -0.329,-1.109 -0.318,-0.194 -0.479,0.334 -0.43,0.59 -0.517,0.38 -0.897,0.933 -1.531,1.009 -0.411,0.047 -0.606,-0.306 -0.924,-0.793 -0.031,0.907 -0.846,1.26 -1.425,0.961 -0.202,-0.103 -0.288,-0.443 -0.579,-0.401 -0.25,0.037 -0.491,0.276 -0.778,0.161 -0.323,-0.129 -0.389,-0.928 -0.646,-0.725 -0.861,0.686 -2.058,1.03 -2.891,0.472 -0.067,0.317 -0.147,1.269 -0.822,0.98 -0.565,-0.241 -0.445,0.484 -0.512,0.621 -0.114,0.234 -0.481,0.296 -0.474,0.597 0.008,0.474 -0.049,1.038 -0.163,1.542 -0.046,0.202 -0.463,0.23 -0.702,0.427 0.233,0.287 0.944,1.08 1.14,1.409 0.192,0.326 -0.681,0.541 -0.009,0.836 0.196,0.083 0.314,0.352 0.234,0.528 -0.07,0.158 -0.64,0.517 -0.789,0.637 0.092,0.458 0.391,0.014 0.439,-0.002 0.468,-0.149 0.997,0.164 0.887,0.422 -0.29,0.691 0.521,1.366 1.067,1.754 -0.13,0.473 -0.386,0.755 -0.33,0.915 0.21,0.594 0.711,1.079 1.277,0.751 0.145,-0.083 0.511,-0.73 0.656,-0.937 0.557,0.214 1.005,0.785 1.537,1.516 -0.471,0.614 -1.421,1.127 -1.866,1.806 -0.221,-0.028 -0.509,0.083 -0.599,0.019 -0.624,-0.439 -1.119,-0.955 -1.389,-1.537 -0.561,0.459 0.126,0.941 0.181,1.182 0.081,0.358 0.094,0.685 -0.301,0.743 -0.168,0.025 -0.311,-0.403 -0.627,-0.21 -0.174,0.104 0.261,0.389 0.075,0.68 -0.297,0.463 -0.921,0.033 -1.316,0.192 0.16,0.5 0.333,0.869 0.104,1.364 -0.162,0.355 -0.038,0.882 -0.321,1.06 -0.746,0.468 -0.811,-0.723 -1.602,-0.677 -0.705,0.037 -1.427,-0.547 -1.554,-1.375 -0.071,-0.465 -0.099,-1.042 0.262,-1.54 -0.571,0.119 -0.575,0.757 -0.771,1.013 -0.712,-0.112 -1.096,-0.592 -1.735,-0.506 -0.476,0.063 -0.631,-0.507 -0.902,-0.794 -0.375,0.276 -0.845,0.734 -1.366,0.363 -0.069,0.349 -0.486,0.468 -0.96,0.155 -0.217,-0.146 -1.236,-0.403 -1.184,-0.051 0.104,0.705 -0.431,1.434 -0.833,2.008 0.46,0.236 0.236,0.562 0.143,0.814 -0.113,0.3 -0.15,0.693 0.231,0.805 0.216,0.059 0.492,0.219 0.627,0.457 0.304,0.538 0.363,1.12 0.491,1.695 -0.1,0.047 -0.404,0.307 -0.109,0.297 0.825,-0.022 1.502,0.877 1.977,1.409 0.282,0.315 0.792,0.896 1.302,0.565 0.271,-0.175 0.557,-0.073 0.807,-0.046 0.103,0.323 0.488,0.388 0.758,0.266 0.138,-0.061 0.354,-0.114 0.55,0.003 0.149,0.093 0.222,0.438 0.697,0.396 -0.458,-0.375 0.025,-1.091 0.54,-1.19 0.279,-0.053 0.752,0.19 0.86,-0.281 0.039,-0.18 0.64,-0.1 0.233,-0.353 -0.233,-0.146 -0.474,-0.392 -0.39,-0.627 0.12,-0.332 0.539,-0.363 0.773,-0.145 0.282,0.258 0.703,0.908 0.138,1.203 0.139,0.193 0.486,0.392 0.357,0.656 -0.126,0.262 0.005,0.485 0.265,0.501 0.172,0.536 0.543,0.992 0.499,1.542 -0.011,0.125 -0.427,0.311 -0.226,0.395 0.373,0.155 0.889,0.158 1.068,0.59 0.098,0.233 -0.172,0.374 -0.325,0.393 -0.277,0.039 -0.558,-0.183 -0.7,-0.461 -0.216,0.174 -0.997,0.647 -1.036,0.837 -0.101,0.508 -0.536,0.773 -0.58,0.94 -0.365,1.407 -0.041,3.047 1.43,3.528 0.303,0.099 0.726,-0.238 1.254,-0.268 0.111,0.639 -0.356,1.48 -0.157,2.055 0.625,0.119 -0.108,0.485 -0.235,0.566 0.06,0.504 -0.262,0.965 0.077,1.308 -0.359,0.22 -0.777,0.51 -0.716,0.862 0.045,0.259 0.763,0.944 0.945,1.17 -0.176,0.394 -0.093,0.848 -0.257,1.264 -0.043,0.11 -0.569,0.3 -0.128,0.49 0.109,-0.102 0.33,-0.32 0.393,-0.191 0.348,0.697 1.108,0.877 1.653,1.307 0.089,-0.159 0.38,-0.362 0.463,0.058 0.449,-0.29 1.001,0.213 1.245,0.292 0.715,0.23 1.209,0.224 1.913,0.134 0.096,-0.011 0.247,0.436 0.428,0.288 -0.072,-0.341 -0.028,-0.681 0.09,-1.021 0.086,-0.252 0.461,-0.131 0.685,-0.051 0.084,0.029 0.3,0.371 0.391,0.483 0.518,-0.167 -0.111,-0.494 -0.259,-0.742 0.381,-0.398 0.981,-0.806 1.616,-1.287 0.161,-0.123 0.494,0.406 0.753,0.309 0.429,-0.164 -0.165,-0.479 -0.317,-0.616 -0.232,-0.209 -0.212,-0.657 -0.028,-0.783 0.189,-0.133 0.854,-0.263 1.03,-0.318 -0.526,-0.277 -0.859,-0.972 -0.906,-1.447 -0.06,-0.567 0.269,-1.215 0.987,-1.576 -0.396,-0.224 -0.826,0.077 -1.015,-0.009 -0.322,-0.15 -0.492,-0.465 -0.255,-0.671 0.275,0.092 0.744,0.127 0.759,-0.387 -0.468,-0.033 -1.112,-0.249 -1.371,-0.747 -0.196,-0.381 0.516,-0.285 0.845,-0.206 0.238,0.057 0.459,0.145 0.688,0.149 -0.308,-0.384 0.409,-0.506 0.221,-0.767 -0.234,0.032 -0.541,-0.166 -0.512,-0.514 0.02,-0.233 -0.179,-0.531 -0.047,-0.801 0.067,-0.131 0.446,-0.277 0.296,-0.369 -0.241,-0.149 -0.494,-0.434 -0.271,-0.57 0.425,-0.267 -0.057,-0.606 -0.196,-0.729 0.089,-0.261 -0.045,-0.463 -0.038,-0.706 0.215,-0.091 0.544,0.04 0.713,-0.265 -0.172,-0.171 -0.482,-0.442 -0.258,-0.704 0.282,-0.329 0.744,-0.577 1.163,-0.639 0.24,-0.039 0.559,0.047 0.833,0.137 -0.042,-0.571 -0.085,-1.148 -0.338,-1.584 0.636,-0.495 1.195,-0.865 1.558,-1.41 0.204,-0.305 0.935,-0.266 1.265,-0.553 0.315,-0.274 -0.229,-0.381 -0.405,-0.268 0.275,-0.363 0.98,-0.588 1.595,-0.582 0.001,0.279 -0.32,0.799 0.2,0.795 0.223,-0.004 0.373,-0.215 0.554,-0.355 -0.024,-0.149 -0.15,-0.416 -0.036,-0.439 0.359,-0.07 0.804,-0.03 0.735,0.304 -0.086,0.413 -0.33,0.787 -0.486,1.25 -0.083,0.245 -0.519,-0.019 -0.747,0.108 0.122,0.443 -0.519,0.612 -0.383,0.726 0.789,0.663 0.895,1.946 0.778,2.604 -0.457,-0.014 -0.503,0.337 -0.449,0.545 0.13,0.513 0.277,1.077 0,1.502 0.133,0.261 0.328,0.471 0.618,0.349 0.21,-0.088 0.391,-0.426 0.715,-0.395 -0.16,0.498 0.584,0.759 0.36,1.148 -0.144,0.252 -0.404,0.535 -0.235,0.783 0.181,-0.146 0.652,-0.638 0.825,-0.666 0.2,-0.034 0.46,0.138 0.534,0.302 0.2,0.45 -0.241,0.698 -0.412,0.996 0.199,0.208 0.862,0.092 0.575,0.465 -0.105,0.139 -0.265,0.409 -0.167,0.423 0.543,0.082 0.679,0.854 1.046,0.659 0.294,-0.156 0.636,-0.166 0.82,-0.047 0.288,0.188 0.945,1.169 1.216,1.504 0.089,-0.312 0.439,-0.583 0.779,-0.378 0.156,-0.095 0.537,-0.188 0.504,0.173 0.356,0.195 0.547,0.602 0.824,0.866 0.354,0.341 0.245,-0.359 0.233,-0.391 -0.17,-0.492 0.317,-0.413 0.395,-0.258 0.085,0.171 0.131,0.361 0.25,0.522 0.357,-0.046 0.625,0.192 0.717,0.501 0.166,0.555 0.101,1.182 0.06,1.807 0.386,0.034 0.117,-0.72 0.543,-0.628 0.632,0.138 0.4,0.906 1.029,1.205 -0.109,0.344 0.064,0.702 0.306,0.929 0.191,-0.424 0.904,-0.805 1.479,-0.403 0.266,0.188 0.355,-0.527 0.856,-0.24 0.356,0.202 0.747,0.378 0.969,0.808 0.309,-0.433 0.375,-1.19 0.657,-1.171 0.777,0.05 1.593,0.029 2.171,1.269 0.068,-1.031 -0.064,-1.872 0.101,-2.471 0.608,-0.649 1.291,-0.9 1.954,-0.781 -0.344,-0.399 -0.967,-0.808 -0.496,-1.297 0.368,-0.381 1.106,0.102 1.707,-0.072 -0.195,-0.344 -0.52,-0.449 -0.767,-0.695 0.371,-0.731 0.255,-1.526 0.507,-2.168 0.178,-0.455 0.703,-0.181 0.924,-0.396"
         inkscape:connector-curvature="0" />
    </g>
  </g>
</svg>
