<?xml version="1.0" encoding="UTF-8"?>
<!DOCTYPE svg PUBLIC "-//W3C//DTD SVG 1.1//EN" "http://www.w3.org/Graphics/SVG/1.1/DTD/svg11.dtd">
<!-- Creator: CorelDRAW X7 -->
<svg xmlns="http://www.w3.org/2000/svg" xml:space="preserve" width="250px" height="156px" version="1.1" style="shape-rendering:geometricPrecision; text-rendering:geometricPrecision; image-rendering:optimizeQuality; fill-rule:evenodd; clip-rule:evenodd"
viewBox="0 0 250 156"
 xmlns:xlink="http://www.w3.org/1999/xlink">
 <defs>
  <style type="text/css">
   <![CDATA[
    .str0 {stroke:#2B2A29;stroke-width:1.25}
    .fil1 {fill:none}
    .fil0 {fill:#FEFEFE}
   ]]>
  </style>
 </defs>
 <g id="Слой_x0020_1">
  <metadata id="CorelCorpID_0Corel-Layer"/>
  <g id="_152739349968">
   <path class="fil0 str0" d="M21 58c3,10 5,21 5,31 0,6 -3,14 -5,19 -3,4 -6,7 -10,10 6,-6 8,-12 9,-20 0,-3 0,-6 0,-9 0,-10 -2,-19 -5,-29l6 -2z"/>
  </g>
  <path class="fil1" d="M23 94c-1,9 -4,18 -12,24"/>
  <g id="_152739350288">
   <path class="fil0 str0" d="M13 65c1,-5 4,-7 8,-7 11,-3 37,4 34,19 -2,7 -10,13 -18,17 2,1 4,1 5,1 14,3 28,10 39,20 -12,-9 -26,-15 -41,-16 -2,-1 -7,-1 -12,-1 -4,1 -10,2 -12,0 -1,-1 -1,-4 1,-4 1,-1 4,-1 6,-1 2,0 3,-1 5,-2 5,-2 24,-11 21,-18 -3,-7 -18,-10 -25,-10 0,0 -4,1 -5,2l-6 0z"/>
  </g>
  <path class="fil1" d="M16 65c1,-13 66,3 19,27 -17,8 -26,2 -3,4 31,2 49,19 49,19"/>
  <g id="_152739350192">
   <path class="fil0 str0" d="M45 79c-2,0 -3,0 -5,0 -2,0 -1,0 -3,0 -2,-1 -3,-1 -5,0 1,-2 2,-3 4,-5 1,-1 2,-1 3,-1 3,-1 6,-1 9,1l-3 5z"/>
  </g>
  <path class="fil1" d="M46 76c-4,-1 -11,0 -14,3"/>
  <g id="_152739348048">
   <path class="fil0 str0" d="M63 102c7,-9 15,-21 19,-30 2,-5 6,-22 4,-26 0,0 0,0 0,0 -5,2 -15,26 -17,31 -3,7 -6,15 -9,22 -1,3 -2,5 -4,8 2,-2 5,-3 7,-5zm-15 24c-3,5 -6,10 -8,15 -3,4 -10,16 -15,14 -2,-1 -3,-3 -2,-5 1,-2 4,-6 6,-9 5,-6 9,-12 13,-18 5,-10 10,-20 14,-30 5,-12 16,-43 25,-51 3,-3 7,-4 10,0 4,7 -1,26 -4,33 -3,6 -7,13 -11,20 5,-2 10,-4 16,-5 3,0 8,-1 8,4 1,1 0,4 -2,8 4,-2 7,-3 9,-4 6,-1 28,-7 31,-2 2,2 1,5 -2,7 9,-3 18,-6 29,-8 18,-4 41,-8 60,-8 -3,0 -7,0 -10,0 -21,3 -45,8 -65,14 -3,1 -13,4 -21,7 -3,2 -5,3 -7,4 -1,0 -5,3 -7,2 -1,-1 -1,-2 1,-3 2,-1 6,-3 9,-4 3,-2 10,-6 11,-9 -4,-2 -25,3 -29,5 -3,1 -8,3 -12,6 -2,4 -5,7 -6,8 -3,2 -6,-1 -4,-5 1,-2 3,-4 6,-5 2,-4 4,-9 4,-12 -1,0 -2,0 -2,1 -10,2 -19,5 -25,10 -3,3 -6,7 -9,9l-1 -1c-4,4 -7,8 -10,12zm88 -28l0 0 0 0 0 0z"/>
  </g>
  <path class="fil1" d="M57 113c10,-9 22,-28 28,-40 1,-4 8,-27 2,-30 -8,-4 -23,39 -26,45 -3,8 -26,63 -35,64 -2,0 2,-5 4,-6 18,-25 29,-46 62,-53 7,-1 7,0 4,9 -11,25 -16,8 9,-1 3,-1 46,-12 29,2 -14,11 -36,15 8,-1 22,-7 60,-15 83,-15"/>
  <g id="_152739347696">
   <path class="fil0 str0" d="M64 138c5,-1 21,-11 26,-14 6,-3 10,-5 17,-7 11,-4 24,-7 35,-9 7,-1 15,-1 22,-2 19,-1 45,-1 64,4 0,0 1,0 1,1 0,-1 -1,-1 -1,-1 -20,-4 -46,-2 -66,1 -6,1 -12,2 -19,4 -12,2 -24,4 -36,8 -6,2 -10,4 -16,7 -7,4 -15,9 -22,13 -2,1 -3,1 -6,1l1 -6z"/>
  </g>
  <path class="fil1" d="M64 141c4,0 28,-15 37,-19 29,-11 93,-20 126,-12 0,0 2,0 2,1"/>
  <g id="_152739345008">
   <path class="fil0 str0" d="M133 55c0,7 0,15 0,23 5,-6 10,-11 17,-15 12,-8 26,-15 39,-22 5,-2 16,-7 21,-7 -4,0 -13,5 -16,7 -13,7 -27,16 -39,25 -2,2 -6,5 -8,7 -7,6 -12,12 -15,21 -1,3 -6,2 -6,-2 2,-12 1,-25 1,-37l6 0z"/>
  </g>
  <path class="fil1" d="M130 55c3,59 -10,36 16,15 8,-7 56,-37 64,-36"/>
 </g>
</svg>
